<?xml version="1.0" encoding="UTF-8" standalone="no"?>
<!DOCTYPE svg PUBLIC "-//W3C//DTD SVG 1.1//EN"
 "http://www.w3.org/Graphics/SVG/1.1/DTD/svg11.dtd">
<!-- Generated by graphviz version 2.38.0 (20140413.2041)
 -->
<!-- Title: snakemake_dag Pages: 1 -->
<svg width="500pt" height="996pt"
 viewBox="0.00 0.00 500.00 996.00" xmlns="http://www.w3.org/2000/svg" xmlns:xlink="http://www.w3.org/1999/xlink">
<g id="graph0" class="graph" transform="scale(1 1) rotate(0) translate(4 992)">
<title>snakemake_dag</title>
<polygon fill="white" stroke="none" points="-4,4 -4,-992 496,-992 496,4 -4,4"/>
<!-- 0 -->
<g id="node1" class="node"><title>0</title>
<path fill="none" stroke="#56d882" stroke-width="2" d="M276.5,-36C276.5,-36 246.5,-36 246.5,-36 240.5,-36 234.5,-30 234.5,-24 234.5,-24 234.5,-12 234.5,-12 234.5,-6 240.5,-0 246.5,-0 246.5,-0 276.5,-0 276.5,-0 282.5,-0 288.5,-6 288.5,-12 288.5,-12 288.5,-24 288.5,-24 288.5,-30 282.5,-36 276.5,-36"/>
<text text-anchor="middle" x="261.5" y="-15.5" font-family="sans" font-size="10.00">all</text>
</g>
<!-- 1 -->
<g id="node2" class="node"><title>1</title>
<path fill="none" stroke="#56d0d8" stroke-width="2" d="M251.5,-108C251.5,-108 189.5,-108 189.5,-108 183.5,-108 177.5,-102 177.5,-96 177.5,-96 177.5,-84 177.5,-84 177.5,-78 183.5,-72 189.5,-72 189.5,-72 251.5,-72 251.5,-72 257.5,-72 263.5,-78 263.5,-84 263.5,-84 263.5,-96 263.5,-96 263.5,-102 257.5,-108 251.5,-108"/>
<text text-anchor="middle" x="220.5" y="-87.5" font-family="sans" font-size="10.00">merge_results</text>
</g>
<!-- 1&#45;&gt;0 -->
<g id="edge1" class="edge"><title>1&#45;&gt;0</title>
<path fill="none" stroke="grey" stroke-width="2" d="M230.635,-71.6966C235.352,-63.6436 241.062,-53.8945 246.282,-44.9824"/>
<polygon fill="grey" stroke="grey" stroke-width="2" points="249.448,-46.5021 251.482,-36.1043 243.408,-42.9643 249.448,-46.5021"/>
</g>
<!-- 2 -->
<g id="node3" class="node"><title>2</title>
<path fill="none" stroke="#d85656" stroke-width="2" d="M314.5,-252C314.5,-252 284.5,-252 284.5,-252 278.5,-252 272.5,-246 272.5,-240 272.5,-240 272.5,-228 272.5,-228 272.5,-222 278.5,-216 284.5,-216 284.5,-216 314.5,-216 314.5,-216 320.5,-216 326.5,-222 326.5,-228 326.5,-228 326.5,-240 326.5,-240 326.5,-246 320.5,-252 314.5,-252"/>
<text text-anchor="middle" x="299.5" y="-231.5" font-family="sans" font-size="10.00">swarm</text>
</g>
<!-- 2&#45;&gt;0 -->
<g id="edge2" class="edge"><title>2&#45;&gt;0</title>
<path fill="none" stroke="grey" stroke-width="2" d="M296.802,-215.569C292.173,-185.987 282.27,-124.091 272.5,-72 270.917,-63.5573 269.061,-54.3868 267.331,-46.0844"/>
<polygon fill="grey" stroke="grey" stroke-width="2" points="270.724,-45.2143 265.234,-36.1527 263.875,-46.6599 270.724,-45.2143"/>
</g>
<!-- 2&#45;&gt;1 -->
<g id="edge6" class="edge"><title>2&#45;&gt;1</title>
<path fill="none" stroke="grey" stroke-width="2" d="M289.971,-215.871C276.329,-191.35 251.116,-146.032 235.109,-117.259"/>
<polygon fill="grey" stroke="grey" stroke-width="2" points="237.983,-115.226 230.063,-108.189 231.866,-118.63 237.983,-115.226"/>
</g>
<!-- 6 -->
<g id="node7" class="node"><title>6</title>
<path fill="none" stroke="#d8b456" stroke-width="2" d="M224.5,-180C224.5,-180 194.5,-180 194.5,-180 188.5,-180 182.5,-174 182.5,-168 182.5,-168 182.5,-156 182.5,-156 182.5,-150 188.5,-144 194.5,-144 194.5,-144 224.5,-144 224.5,-144 230.5,-144 236.5,-150 236.5,-156 236.5,-156 236.5,-168 236.5,-168 236.5,-174 230.5,-180 224.5,-180"/>
<text text-anchor="middle" x="209.5" y="-159.5" font-family="sans" font-size="10.00">blast</text>
</g>
<!-- 2&#45;&gt;6 -->
<g id="edge14" class="edge"><title>2&#45;&gt;6</title>
<path fill="none" stroke="grey" stroke-width="2" d="M277.253,-215.697C265.918,-206.881 251.97,-196.032 239.681,-186.474"/>
<polygon fill="grey" stroke="grey" stroke-width="2" points="241.534,-183.481 231.491,-180.104 237.236,-189.007 241.534,-183.481"/>
</g>
<!-- 3 -->
<g id="node4" class="node"><title>3</title>
<path fill="none" stroke="#56d8c1" stroke-width="2" d="M236.5,-396C236.5,-396 206.5,-396 206.5,-396 200.5,-396 194.5,-390 194.5,-384 194.5,-384 194.5,-372 194.5,-372 194.5,-366 200.5,-360 206.5,-360 206.5,-360 236.5,-360 236.5,-360 242.5,-360 248.5,-366 248.5,-372 248.5,-372 248.5,-384 248.5,-384 248.5,-390 242.5,-396 236.5,-396"/>
<text text-anchor="middle" x="221.5" y="-375.5" font-family="sans" font-size="10.00">filtering</text>
</g>
<!-- 3&#45;&gt;0 -->
<g id="edge3" class="edge"><title>3&#45;&gt;0</title>
<path fill="none" stroke="grey" stroke-width="2" d="M194.202,-361.654C157.966,-339.029 98.5,-293.055 98.5,-235 98.5,-235 98.5,-235 98.5,-161 98.5,-94.4629 176.673,-51.9811 224.746,-32.1475"/>
<polygon fill="grey" stroke="grey" stroke-width="2" points="226.225,-35.3255 234.217,-28.3702 223.632,-28.8235 226.225,-35.3255"/>
</g>
<!-- 4 -->
<g id="node5" class="node"><title>4</title>
<path fill="none" stroke="#d89556" stroke-width="2" d="M333.5,-324C333.5,-324 277.5,-324 277.5,-324 271.5,-324 265.5,-318 265.5,-312 265.5,-312 265.5,-300 265.5,-300 265.5,-294 271.5,-288 277.5,-288 277.5,-288 333.5,-288 333.5,-288 339.5,-288 345.5,-294 345.5,-300 345.5,-300 345.5,-312 345.5,-312 345.5,-318 339.5,-324 333.5,-324"/>
<text text-anchor="middle" x="305.5" y="-303.5" font-family="sans" font-size="10.00">ampliconduo</text>
</g>
<!-- 3&#45;&gt;4 -->
<g id="edge11" class="edge"><title>3&#45;&gt;4</title>
<path fill="none" stroke="grey" stroke-width="2" d="M242.264,-359.697C252.741,-350.965 265.611,-340.24 277,-330.75"/>
<polygon fill="grey" stroke="grey" stroke-width="2" points="279.533,-333.195 284.975,-324.104 275.052,-327.817 279.533,-333.195"/>
</g>
<!-- 5 -->
<g id="node6" class="node"><title>5</title>
<path fill="none" stroke="#56d8a2" stroke-width="2" d="M235,-324C235,-324 188,-324 188,-324 182,-324 176,-318 176,-312 176,-312 176,-300 176,-300 176,-294 182,-288 188,-288 188,-288 235,-288 235,-288 241,-288 247,-294 247,-300 247,-300 247,-312 247,-312 247,-318 241,-324 235,-324"/>
<text text-anchor="middle" x="211.5" y="-303.5" font-family="sans" font-size="10.00">write_fasta</text>
</g>
<!-- 3&#45;&gt;5 -->
<g id="edge12" class="edge"><title>3&#45;&gt;5</title>
<path fill="none" stroke="grey" stroke-width="2" d="M219.028,-359.697C217.926,-351.983 216.602,-342.712 215.373,-334.112"/>
<polygon fill="grey" stroke="grey" stroke-width="2" points="218.823,-333.509 213.943,-324.104 211.893,-334.499 218.823,-333.509"/>
</g>
<!-- 4&#45;&gt;0 -->
<g id="edge4" class="edge"><title>4&#45;&gt;0</title>
<path fill="none" stroke="grey" stroke-width="2" d="M318.227,-287.845C324.786,-277.923 332.107,-264.883 335.5,-252 339.575,-236.528 337.914,-231.817 335.5,-216 325.384,-149.715 316.721,-133.713 290.5,-72 286.685,-63.0222 281.815,-53.5728 277.16,-45.1792"/>
<polygon fill="grey" stroke="grey" stroke-width="2" points="280.054,-43.1887 272.062,-36.2326 273.972,-46.654 280.054,-43.1887"/>
</g>
<!-- 5&#45;&gt;1 -->
<g id="edge5" class="edge"><title>5&#45;&gt;1</title>
<path fill="none" stroke="grey" stroke-width="2" d="M185.376,-287.816C173.921,-278.692 161.692,-266.386 155.5,-252 149.174,-237.304 153.545,-231.88 155.5,-216 159.53,-183.262 158.116,-173.177 173.5,-144 178.858,-133.839 186.563,-124.037 194.189,-115.684"/>
<polygon fill="grey" stroke="grey" stroke-width="2" points="196.722,-118.1 201.101,-108.453 191.661,-113.264 196.722,-118.1"/>
</g>
<!-- 5&#45;&gt;2 -->
<g id="edge8" class="edge"><title>5&#45;&gt;2</title>
<path fill="none" stroke="grey" stroke-width="2" d="M233.253,-287.697C244.336,-278.881 257.974,-268.032 269.99,-258.474"/>
<polygon fill="grey" stroke="grey" stroke-width="2" points="272.35,-261.069 277.997,-252.104 267.993,-255.59 272.35,-261.069"/>
</g>
<!-- 6&#45;&gt;1 -->
<g id="edge7" class="edge"><title>6&#45;&gt;1</title>
<path fill="none" stroke="grey" stroke-width="2" d="M212.219,-143.697C213.431,-135.983 214.888,-126.712 216.239,-118.112"/>
<polygon fill="grey" stroke="grey" stroke-width="2" points="219.717,-118.526 217.812,-108.104 212.802,-117.44 219.717,-118.526"/>
</g>
<!-- 7 -->
<g id="node8" class="node"><title>7</title>
<path fill="none" stroke="#9fd856" stroke-width="2" d="M283,-468C283,-468 214,-468 214,-468 208,-468 202,-462 202,-456 202,-456 202,-444 202,-444 202,-438 208,-432 214,-432 214,-432 283,-432 283,-432 289,-432 295,-438 295,-444 295,-444 295,-456 295,-456 295,-462 289,-468 283,-468"/>
<text text-anchor="middle" x="248.5" y="-447.5" font-family="sans" font-size="10.00">unfiltered_table</text>
</g>
<!-- 7&#45;&gt;3 -->
<g id="edge9" class="edge"><title>7&#45;&gt;3</title>
<path fill="none" stroke="grey" stroke-width="2" d="M241.826,-431.697C238.785,-423.813 235.117,-414.304 231.739,-405.546"/>
<polygon fill="grey" stroke="grey" stroke-width="2" points="234.962,-404.175 228.097,-396.104 228.431,-406.694 234.962,-404.175"/>
</g>
<!-- 7&#45;&gt;4 -->
<g id="edge10" class="edge"><title>7&#45;&gt;4</title>
<path fill="none" stroke="grey" stroke-width="2" d="M255.376,-431.871C265.176,-407.457 283.252,-362.426 294.808,-333.635"/>
<polygon fill="grey" stroke="grey" stroke-width="2" points="298.123,-334.773 298.6,-324.189 291.627,-332.166 298.123,-334.773"/>
</g>
<!-- 8 -->
<g id="node9" class="node"><title>8</title>
<path fill="none" stroke="#5692d8" stroke-width="2" stroke-dasharray="5,2" d="M242.5,-252C242.5,-252 176.5,-252 176.5,-252 170.5,-252 164.5,-246 164.5,-240 164.5,-240 164.5,-228 164.5,-228 164.5,-222 170.5,-216 176.5,-216 176.5,-216 242.5,-216 242.5,-216 248.5,-216 254.5,-222 254.5,-228 254.5,-228 254.5,-240 254.5,-240 254.5,-246 248.5,-252 242.5,-252"/>
<text text-anchor="middle" x="209.5" y="-231.5" font-family="sans" font-size="10.00">make_silva_db</text>
</g>
<!-- 8&#45;&gt;6 -->
<g id="edge13" class="edge"><title>8&#45;&gt;6</title>
<path fill="none" stroke="grey" stroke-width="2" d="M209.5,-215.697C209.5,-207.983 209.5,-198.712 209.5,-190.112"/>
<polygon fill="grey" stroke="grey" stroke-width="2" points="213,-190.104 209.5,-180.104 206,-190.104 213,-190.104"/>
</g>
<!-- 9 -->
<g id="node10" class="node"><title>9</title>
<path fill="none" stroke="#88d856" stroke-width="2" d="M224,-540C224,-540 193,-540 193,-540 187,-540 181,-534 181,-528 181,-528 181,-516 181,-516 181,-510 187,-504 193,-504 193,-504 224,-504 224,-504 230,-504 236,-510 236,-516 236,-516 236,-528 236,-528 236,-534 230,-540 224,-540"/>
<text text-anchor="middle" x="208.5" y="-519.5" font-family="sans" font-size="10.00">vsearch</text>
</g>
<!-- 9&#45;&gt;7 -->
<g id="edge15" class="edge"><title>9&#45;&gt;7</title>
<path fill="none" stroke="grey" stroke-width="2" d="M218.388,-503.697C222.989,-495.644 228.56,-485.894 233.653,-476.982"/>
<polygon fill="grey" stroke="grey" stroke-width="2" points="236.804,-478.523 238.726,-468.104 230.726,-475.05 236.804,-478.523"/>
</g>
<!-- 10 -->
<g id="node11" class="node"><title>10</title>
<path fill="none" stroke="#88d856" stroke-width="2" d="M305,-540C305,-540 274,-540 274,-540 268,-540 262,-534 262,-528 262,-528 262,-516 262,-516 262,-510 268,-504 274,-504 274,-504 305,-504 305,-504 311,-504 317,-510 317,-516 317,-516 317,-528 317,-528 317,-534 311,-540 305,-540"/>
<text text-anchor="middle" x="289.5" y="-519.5" font-family="sans" font-size="10.00">vsearch</text>
</g>
<!-- 10&#45;&gt;7 -->
<g id="edge16" class="edge"><title>10&#45;&gt;7</title>
<path fill="none" stroke="grey" stroke-width="2" d="M279.365,-503.697C274.648,-495.644 268.938,-485.894 263.718,-476.982"/>
<polygon fill="grey" stroke="grey" stroke-width="2" points="266.592,-474.964 258.518,-468.104 260.552,-478.502 266.592,-474.964"/>
</g>
<!-- 11 -->
<g id="node12" class="node"><title>11</title>
<path fill="none" stroke="#bed856" stroke-width="2" d="M224,-612C224,-612 159,-612 159,-612 153,-612 147,-606 147,-600 147,-600 147,-588 147,-588 147,-582 153,-576 159,-576 159,-576 224,-576 224,-576 230,-576 236,-582 236,-588 236,-588 236,-600 236,-600 236,-606 230,-612 224,-612"/>
<text text-anchor="middle" x="191.5" y="-591.5" font-family="sans" font-size="10.00">cluster_sorting</text>
</g>
<!-- 11&#45;&gt;9 -->
<g id="edge17" class="edge"><title>11&#45;&gt;9</title>
<path fill="none" stroke="grey" stroke-width="2" d="M195.702,-575.697C197.596,-567.898 199.877,-558.509 201.984,-549.829"/>
<polygon fill="grey" stroke="grey" stroke-width="2" points="205.387,-550.648 204.346,-540.104 198.585,-548.996 205.387,-550.648"/>
</g>
<!-- 12 -->
<g id="node13" class="node"><title>12</title>
<path fill="none" stroke="#bed856" stroke-width="2" d="M331,-612C331,-612 266,-612 266,-612 260,-612 254,-606 254,-600 254,-600 254,-588 254,-588 254,-582 260,-576 266,-576 266,-576 331,-576 331,-576 337,-576 343,-582 343,-588 343,-588 343,-600 343,-600 343,-606 337,-612 331,-612"/>
<text text-anchor="middle" x="298.5" y="-591.5" font-family="sans" font-size="10.00">cluster_sorting</text>
</g>
<!-- 12&#45;&gt;10 -->
<g id="edge18" class="edge"><title>12&#45;&gt;10</title>
<path fill="none" stroke="grey" stroke-width="2" d="M296.275,-575.697C295.283,-567.983 294.092,-558.712 292.986,-550.112"/>
<polygon fill="grey" stroke="grey" stroke-width="2" points="296.446,-549.576 291.699,-540.104 289.503,-550.469 296.446,-549.576"/>
</g>
<!-- 13 -->
<g id="node14" class="node"><title>13</title>
<path fill="none" stroke="#d87556" stroke-width="2" d="M206.5,-684C206.5,-684 176.5,-684 176.5,-684 170.5,-684 164.5,-678 164.5,-672 164.5,-672 164.5,-660 164.5,-660 164.5,-654 170.5,-648 176.5,-648 176.5,-648 206.5,-648 206.5,-648 212.5,-648 218.5,-654 218.5,-660 218.5,-660 218.5,-672 218.5,-672 218.5,-678 212.5,-684 206.5,-684"/>
<text text-anchor="middle" x="191.5" y="-663.5" font-family="sans" font-size="10.00">cdhit</text>
</g>
<!-- 13&#45;&gt;11 -->
<g id="edge19" class="edge"><title>13&#45;&gt;11</title>
<path fill="none" stroke="grey" stroke-width="2" d="M191.5,-647.697C191.5,-639.983 191.5,-630.712 191.5,-622.112"/>
<polygon fill="grey" stroke="grey" stroke-width="2" points="195,-622.104 191.5,-612.104 188,-622.104 195,-622.104"/>
</g>
<!-- 14 -->
<g id="node15" class="node"><title>14</title>
<path fill="none" stroke="#d87556" stroke-width="2" d="M313.5,-684C313.5,-684 283.5,-684 283.5,-684 277.5,-684 271.5,-678 271.5,-672 271.5,-672 271.5,-660 271.5,-660 271.5,-654 277.5,-648 283.5,-648 283.5,-648 313.5,-648 313.5,-648 319.5,-648 325.5,-654 325.5,-660 325.5,-660 325.5,-672 325.5,-672 325.5,-678 319.5,-684 313.5,-684"/>
<text text-anchor="middle" x="298.5" y="-663.5" font-family="sans" font-size="10.00">cdhit</text>
</g>
<!-- 14&#45;&gt;12 -->
<g id="edge20" class="edge"><title>14&#45;&gt;12</title>
<path fill="none" stroke="grey" stroke-width="2" d="M298.5,-647.697C298.5,-639.983 298.5,-630.712 298.5,-622.112"/>
<polygon fill="grey" stroke="grey" stroke-width="2" points="302,-622.104 298.5,-612.104 295,-622.104 302,-622.104"/>
</g>
<!-- 15 -->
<g id="node16" class="node"><title>15</title>
<path fill="none" stroke="#68d856" stroke-width="2" d="M222,-756C222,-756 161,-756 161,-756 155,-756 149,-750 149,-744 149,-744 149,-732 149,-732 149,-726 155,-720 161,-720 161,-720 222,-720 222,-720 228,-720 234,-726 234,-732 234,-732 234,-744 234,-744 234,-750 228,-756 222,-756"/>
<text text-anchor="middle" x="191.5" y="-735.5" font-family="sans" font-size="10.00">copy_to_fasta</text>
</g>
<!-- 15&#45;&gt;13 -->
<g id="edge21" class="edge"><title>15&#45;&gt;13</title>
<path fill="none" stroke="grey" stroke-width="2" d="M191.5,-719.697C191.5,-711.983 191.5,-702.712 191.5,-694.112"/>
<polygon fill="grey" stroke="grey" stroke-width="2" points="195,-694.104 191.5,-684.104 188,-694.104 195,-694.104"/>
</g>
<!-- 16 -->
<g id="node17" class="node"><title>16</title>
<path fill="none" stroke="#68d856" stroke-width="2" d="M329,-756C329,-756 268,-756 268,-756 262,-756 256,-750 256,-744 256,-744 256,-732 256,-732 256,-726 262,-720 268,-720 268,-720 329,-720 329,-720 335,-720 341,-726 341,-732 341,-732 341,-744 341,-744 341,-750 335,-756 329,-756"/>
<text text-anchor="middle" x="298.5" y="-735.5" font-family="sans" font-size="10.00">copy_to_fasta</text>
</g>
<!-- 16&#45;&gt;14 -->
<g id="edge22" class="edge"><title>16&#45;&gt;14</title>
<path fill="none" stroke="grey" stroke-width="2" d="M298.5,-719.697C298.5,-711.983 298.5,-702.712 298.5,-694.112"/>
<polygon fill="grey" stroke="grey" stroke-width="2" points="302,-694.104 298.5,-684.104 295,-694.104 302,-694.104"/>
</g>
<!-- 17 -->
<g id="node18" class="node"><title>17</title>
<path fill="none" stroke="#56b1d8" stroke-width="2" d="M211.5,-828C211.5,-828 171.5,-828 171.5,-828 165.5,-828 159.5,-822 159.5,-816 159.5,-816 159.5,-804 159.5,-804 159.5,-798 165.5,-792 171.5,-792 171.5,-792 211.5,-792 211.5,-792 217.5,-792 223.5,-798 223.5,-804 223.5,-804 223.5,-816 223.5,-816 223.5,-822 217.5,-828 211.5,-828"/>
<text text-anchor="middle" x="191.5" y="-807.5" font-family="sans" font-size="10.00">assembly</text>
</g>
<!-- 17&#45;&gt;15 -->
<g id="edge23" class="edge"><title>17&#45;&gt;15</title>
<path fill="none" stroke="grey" stroke-width="2" d="M191.5,-791.697C191.5,-783.983 191.5,-774.712 191.5,-766.112"/>
<polygon fill="grey" stroke="grey" stroke-width="2" points="195,-766.104 191.5,-756.104 188,-766.104 195,-766.104"/>
</g>
<!-- 18 -->
<g id="node19" class="node"><title>18</title>
<path fill="none" stroke="#56b1d8" stroke-width="2" d="M318.5,-828C318.5,-828 278.5,-828 278.5,-828 272.5,-828 266.5,-822 266.5,-816 266.5,-816 266.5,-804 266.5,-804 266.5,-798 272.5,-792 278.5,-792 278.5,-792 318.5,-792 318.5,-792 324.5,-792 330.5,-798 330.5,-804 330.5,-804 330.5,-816 330.5,-816 330.5,-822 324.5,-828 318.5,-828"/>
<text text-anchor="middle" x="298.5" y="-807.5" font-family="sans" font-size="10.00">assembly</text>
</g>
<!-- 18&#45;&gt;16 -->
<g id="edge24" class="edge"><title>18&#45;&gt;16</title>
<path fill="none" stroke="grey" stroke-width="2" d="M298.5,-791.697C298.5,-783.983 298.5,-774.712 298.5,-766.112"/>
<polygon fill="grey" stroke="grey" stroke-width="2" points="302,-766.104 298.5,-756.104 295,-766.104 302,-766.104"/>
</g>
<!-- 19 -->
<g id="node20" class="node"><title>19</title>
<path fill="none" stroke="#5673d8" stroke-width="2" d="M173.5,-900C173.5,-900 143.5,-900 143.5,-900 137.5,-900 131.5,-894 131.5,-888 131.5,-888 131.5,-876 131.5,-876 131.5,-870 137.5,-864 143.5,-864 143.5,-864 173.5,-864 173.5,-864 179.5,-864 185.5,-870 185.5,-876 185.5,-876 185.5,-888 185.5,-888 185.5,-894 179.5,-900 173.5,-900"/>
<text text-anchor="middle" x="158.5" y="-879.5" font-family="sans" font-size="10.00">prinseq</text>
</g>
<!-- 19&#45;&gt;17 -->
<g id="edge25" class="edge"><title>19&#45;&gt;17</title>
<path fill="none" stroke="grey" stroke-width="2" d="M166.657,-863.697C170.414,-855.728 174.953,-846.1 179.118,-837.264"/>
<polygon fill="grey" stroke="grey" stroke-width="2" points="182.338,-838.642 183.437,-828.104 176.006,-835.657 182.338,-838.642"/>
</g>
<!-- 20 -->
<g id="node21" class="node"><title>20</title>
<path fill="none" stroke="#d8d356" stroke-width="2" stroke-dasharray="5,2" d="M275.5,-900C275.5,-900 215.5,-900 215.5,-900 209.5,-900 203.5,-894 203.5,-888 203.5,-888 203.5,-876 203.5,-876 203.5,-870 209.5,-864 215.5,-864 215.5,-864 275.5,-864 275.5,-864 281.5,-864 287.5,-870 287.5,-876 287.5,-876 287.5,-888 287.5,-888 287.5,-894 281.5,-900 275.5,-900"/>
<text text-anchor="middle" x="245.5" y="-879.5" font-family="sans" font-size="10.00">define_primer</text>
</g>
<!-- 20&#45;&gt;17 -->
<g id="edge26" class="edge"><title>20&#45;&gt;17</title>
<path fill="none" stroke="grey" stroke-width="2" d="M232.152,-863.697C225.743,-855.389 217.942,-845.277 210.894,-836.141"/>
<polygon fill="grey" stroke="grey" stroke-width="2" points="213.574,-833.884 204.695,-828.104 208.032,-838.16 213.574,-833.884"/>
</g>
<!-- 20&#45;&gt;18 -->
<g id="edge28" class="edge"><title>20&#45;&gt;18</title>
<path fill="none" stroke="grey" stroke-width="2" d="M258.601,-863.697C264.891,-855.389 272.547,-845.277 279.465,-836.141"/>
<polygon fill="grey" stroke="grey" stroke-width="2" points="282.304,-838.19 285.55,-828.104 276.723,-833.964 282.304,-838.19"/>
</g>
<!-- 21 -->
<g id="node22" class="node"><title>21</title>
<path fill="none" stroke="#5673d8" stroke-width="2" d="M347.5,-900C347.5,-900 317.5,-900 317.5,-900 311.5,-900 305.5,-894 305.5,-888 305.5,-888 305.5,-876 305.5,-876 305.5,-870 311.5,-864 317.5,-864 317.5,-864 347.5,-864 347.5,-864 353.5,-864 359.5,-870 359.5,-876 359.5,-876 359.5,-888 359.5,-888 359.5,-894 353.5,-900 347.5,-900"/>
<text text-anchor="middle" x="332.5" y="-879.5" font-family="sans" font-size="10.00">prinseq</text>
</g>
<!-- 21&#45;&gt;18 -->
<g id="edge27" class="edge"><title>21&#45;&gt;18</title>
<path fill="none" stroke="grey" stroke-width="2" d="M324.096,-863.697C320.225,-855.728 315.548,-846.1 311.257,-837.264"/>
<polygon fill="grey" stroke="grey" stroke-width="2" points="314.325,-835.57 306.808,-828.104 308.029,-838.629 314.325,-835.57"/>
</g>
<!-- 22 -->
<g id="node23" class="node"><title>22</title>
<path fill="none" stroke="#56d863" stroke-width="2" d="M91,-988C91,-988 12,-988 12,-988 6,-988 0,-982 0,-976 0,-976 0,-948 0,-948 0,-942 6,-936 12,-936 12,-936 91,-936 91,-936 97,-936 103,-942 103,-948 103,-948 103,-976 103,-976 103,-982 97,-988 91,-988"/>
<text text-anchor="middle" x="51.5" y="-976" font-family="sans" font-size="10.00">unzip</text>
<text text-anchor="middle" x="51.5" y="-965" font-family="sans" font-size="10.00">read: 1</text>
<text text-anchor="middle" x="51.5" y="-954" font-family="sans" font-size="10.00">sample: S2016RU</text>
<text text-anchor="middle" x="51.5" y="-943" font-family="sans" font-size="10.00">unit: B</text>
</g>
<!-- 22&#45;&gt;19 -->
<g id="edge29" class="edge"><title>22&#45;&gt;19</title>
<path fill="none" stroke="grey" stroke-width="2" d="M85.9444,-935.891C99.0746,-926.319 113.966,-915.464 126.827,-906.089"/>
<polygon fill="grey" stroke="grey" stroke-width="2" points="128.927,-908.889 134.946,-900.17 124.803,-903.233 128.927,-908.889"/>
</g>
<!-- 23 -->
<g id="node24" class="node"><title>23</title>
<path fill="none" stroke="#56d863" stroke-width="2" d="M212,-988C212,-988 133,-988 133,-988 127,-988 121,-982 121,-976 121,-976 121,-948 121,-948 121,-942 127,-936 133,-936 133,-936 212,-936 212,-936 218,-936 224,-942 224,-948 224,-948 224,-976 224,-976 224,-982 218,-988 212,-988"/>
<text text-anchor="middle" x="172.5" y="-976" font-family="sans" font-size="10.00">unzip</text>
<text text-anchor="middle" x="172.5" y="-965" font-family="sans" font-size="10.00">read: 2</text>
<text text-anchor="middle" x="172.5" y="-954" font-family="sans" font-size="10.00">sample: S2016RU</text>
<text text-anchor="middle" x="172.5" y="-943" font-family="sans" font-size="10.00">unit: B</text>
</g>
<!-- 23&#45;&gt;19 -->
<g id="edge30" class="edge"><title>23&#45;&gt;19</title>
<path fill="none" stroke="grey" stroke-width="2" d="M167.993,-935.891C166.532,-927.749 164.904,-918.679 163.414,-910.381"/>
<polygon fill="grey" stroke="grey" stroke-width="2" points="166.837,-909.635 161.625,-900.411 159.947,-910.872 166.837,-909.635"/>
</g>
<!-- 24 -->
<g id="node25" class="node"><title>24</title>
<path fill="none" stroke="#56d863" stroke-width="2" d="M359,-988C359,-988 280,-988 280,-988 274,-988 268,-982 268,-976 268,-976 268,-948 268,-948 268,-942 274,-936 280,-936 280,-936 359,-936 359,-936 365,-936 371,-942 371,-948 371,-948 371,-976 371,-976 371,-982 365,-988 359,-988"/>
<text text-anchor="middle" x="319.5" y="-976" font-family="sans" font-size="10.00">unzip</text>
<text text-anchor="middle" x="319.5" y="-965" font-family="sans" font-size="10.00">read: 1</text>
<text text-anchor="middle" x="319.5" y="-954" font-family="sans" font-size="10.00">sample: S2016RU</text>
<text text-anchor="middle" x="319.5" y="-943" font-family="sans" font-size="10.00">unit: A</text>
</g>
<!-- 24&#45;&gt;21 -->
<g id="edge31" class="edge"><title>24&#45;&gt;21</title>
<path fill="none" stroke="grey" stroke-width="2" d="M323.685,-935.891C325.042,-927.749 326.554,-918.679 327.937,-910.381"/>
<polygon fill="grey" stroke="grey" stroke-width="2" points="331.407,-910.85 329.598,-900.411 324.502,-909.699 331.407,-910.85"/>
</g>
<!-- 25 -->
<g id="node26" class="node"><title>25</title>
<path fill="none" stroke="#56d863" stroke-width="2" d="M480,-988C480,-988 401,-988 401,-988 395,-988 389,-982 389,-976 389,-976 389,-948 389,-948 389,-942 395,-936 401,-936 401,-936 480,-936 480,-936 486,-936 492,-942 492,-948 492,-948 492,-976 492,-976 492,-982 486,-988 480,-988"/>
<text text-anchor="middle" x="440.5" y="-976" font-family="sans" font-size="10.00">unzip</text>
<text text-anchor="middle" x="440.5" y="-965" font-family="sans" font-size="10.00">read: 2</text>
<text text-anchor="middle" x="440.5" y="-954" font-family="sans" font-size="10.00">sample: S2016RU</text>
<text text-anchor="middle" x="440.5" y="-943" font-family="sans" font-size="10.00">unit: A</text>
</g>
<!-- 25&#45;&gt;21 -->
<g id="edge32" class="edge"><title>25&#45;&gt;21</title>
<path fill="none" stroke="grey" stroke-width="2" d="M405.734,-935.891C392.481,-926.319 377.45,-915.464 364.469,-906.089"/>
<polygon fill="grey" stroke="grey" stroke-width="2" points="366.43,-903.188 356.274,-900.17 362.332,-908.863 366.43,-903.188"/>
</g>
</g>
</svg>
