<?xml version="1.0" encoding="UTF-8" standalone="no"?>
<!DOCTYPE svg PUBLIC "-//W3C//DTD SVG 1.1//EN"
 "http://www.w3.org/Graphics/SVG/1.1/DTD/svg11.dtd">
<!-- Generated by graphviz version 2.38.0 (20140413.2041)
 -->
<!-- Title: snakemake_dag Pages: 1 -->
<svg width="1480pt" height="1012pt"
 viewBox="0.00 0.00 1480.00 1012.00" xmlns="http://www.w3.org/2000/svg" xmlns:xlink="http://www.w3.org/1999/xlink">
<g id="graph0" class="graph" transform="scale(1 1) rotate(0) translate(4 1008)">
<title>snakemake_dag</title>
<polygon fill="white" stroke="none" points="-4,4 -4,-1008 1476,-1008 1476,4 -4,4"/>
<!-- 0 -->
<g id="node1" class="node"><title>0</title>
<path fill="none" stroke="#d85656" stroke-width="2" d="M508,-484C508,-484 439,-484 439,-484 433,-484 427,-478 427,-472 427,-472 427,-460 427,-460 427,-454 433,-448 439,-448 439,-448 508,-448 508,-448 514,-448 520,-454 520,-460 520,-460 520,-472 520,-472 520,-478 514,-484 508,-484"/>
<text text-anchor="middle" x="473.5" y="-463.5" font-family="sans" font-size="10.00">unfiltered_table</text>
</g>
<!-- 28 -->
<g id="node29" class="node"><title>28</title>
<path fill="none" stroke="#d87556" stroke-width="2" d="M529.5,-340C529.5,-340 473.5,-340 473.5,-340 467.5,-340 461.5,-334 461.5,-328 461.5,-328 461.5,-316 461.5,-316 461.5,-310 467.5,-304 473.5,-304 473.5,-304 529.5,-304 529.5,-304 535.5,-304 541.5,-310 541.5,-316 541.5,-316 541.5,-328 541.5,-328 541.5,-334 535.5,-340 529.5,-340"/>
<text text-anchor="middle" x="501.5" y="-319.5" font-family="sans" font-size="10.00">ampliconduo</text>
</g>
<!-- 0&#45;&gt;28 -->
<g id="edge30" class="edge"><title>0&#45;&gt;28</title>
<path fill="none" stroke="grey" stroke-width="2" d="M476.877,-447.871C481.671,-423.564 490.493,-378.819 496.173,-350.013"/>
<polygon fill="grey" stroke="grey" stroke-width="2" points="499.61,-350.677 498.111,-340.189 492.742,-349.323 499.61,-350.677"/>
</g>
<!-- 38 -->
<g id="node39" class="node"><title>38</title>
<path fill="none" stroke="#b6d856" stroke-width="2" d="M461.5,-412C461.5,-412 431.5,-412 431.5,-412 425.5,-412 419.5,-406 419.5,-400 419.5,-400 419.5,-388 419.5,-388 419.5,-382 425.5,-376 431.5,-376 431.5,-376 461.5,-376 461.5,-376 467.5,-376 473.5,-382 473.5,-388 473.5,-388 473.5,-400 473.5,-400 473.5,-406 467.5,-412 461.5,-412"/>
<text text-anchor="middle" x="446.5" y="-391.5" font-family="sans" font-size="10.00">filtering</text>
</g>
<!-- 0&#45;&gt;38 -->
<g id="edge45" class="edge"><title>0&#45;&gt;38</title>
<path fill="none" stroke="grey" stroke-width="2" d="M466.826,-447.697C463.785,-439.813 460.117,-430.304 456.739,-421.546"/>
<polygon fill="grey" stroke="grey" stroke-width="2" points="459.962,-420.175 453.097,-412.104 453.431,-422.694 459.962,-420.175"/>
</g>
<!-- 1 -->
<g id="node2" class="node"><title>1</title>
<path fill="none" stroke="#56c1d8" stroke-width="2" d="M1101,-196C1101,-196 1022,-196 1022,-196 1016,-196 1010,-190 1010,-184 1010,-184 1010,-156 1010,-156 1010,-150 1016,-144 1022,-144 1022,-144 1101,-144 1101,-144 1107,-144 1113,-150 1113,-156 1113,-156 1113,-184 1113,-184 1113,-190 1107,-196 1101,-196"/>
<text text-anchor="middle" x="1061.5" y="-184" font-family="sans" font-size="10.00">fastqc</text>
<text text-anchor="middle" x="1061.5" y="-173" font-family="sans" font-size="10.00">read: 1</text>
<text text-anchor="middle" x="1061.5" y="-162" font-family="sans" font-size="10.00">sample: S2016RU</text>
<text text-anchor="middle" x="1061.5" y="-151" font-family="sans" font-size="10.00">unit: B</text>
</g>
<!-- 29 -->
<g id="node30" class="node"><title>29</title>
<path fill="none" stroke="#d88d56" stroke-width="2" d="M955.5,-108C955.5,-108 925.5,-108 925.5,-108 919.5,-108 913.5,-102 913.5,-96 913.5,-96 913.5,-84 913.5,-84 913.5,-78 919.5,-72 925.5,-72 925.5,-72 955.5,-72 955.5,-72 961.5,-72 967.5,-78 967.5,-84 967.5,-84 967.5,-96 967.5,-96 967.5,-102 961.5,-108 955.5,-108"/>
<text text-anchor="middle" x="940.5" y="-87.5" font-family="sans" font-size="10.00">multiqc</text>
</g>
<!-- 1&#45;&gt;29 -->
<g id="edge32" class="edge"><title>1&#45;&gt;29</title>
<path fill="none" stroke="grey" stroke-width="2" d="M1022.55,-143.891C1007.56,-134.228 990.54,-123.257 975.902,-113.821"/>
<polygon fill="grey" stroke="grey" stroke-width="2" points="977.437,-110.647 967.136,-108.17 973.645,-116.53 977.437,-110.647"/>
</g>
<!-- 2 -->
<g id="node3" class="node"><title>2</title>
<path fill="none" stroke="#56d882" stroke-width="2" d="M355.5,-556C355.5,-556 325.5,-556 325.5,-556 319.5,-556 313.5,-550 313.5,-544 313.5,-544 313.5,-532 313.5,-532 313.5,-526 319.5,-520 325.5,-520 325.5,-520 355.5,-520 355.5,-520 361.5,-520 367.5,-526 367.5,-532 367.5,-532 367.5,-544 367.5,-544 367.5,-550 361.5,-556 355.5,-556"/>
<text text-anchor="middle" x="340.5" y="-535.5" font-family="sans" font-size="10.00">uchime</text>
</g>
<!-- 2&#45;&gt;0 -->
<g id="edge3" class="edge"><title>2&#45;&gt;0</title>
<path fill="none" stroke="grey" stroke-width="2" d="M367.735,-522.666C386.272,-512.91 411.149,-499.816 432.12,-488.779"/>
<polygon fill="grey" stroke="grey" stroke-width="2" points="433.921,-491.786 441.14,-484.032 430.661,-485.592 433.921,-491.786"/>
</g>
<!-- 3 -->
<g id="node4" class="node"><title>3</title>
<path fill="none" stroke="#56a9d8" stroke-width="2" d="M547.5,-844C547.5,-844 507.5,-844 507.5,-844 501.5,-844 495.5,-838 495.5,-832 495.5,-832 495.5,-820 495.5,-820 495.5,-814 501.5,-808 507.5,-808 507.5,-808 547.5,-808 547.5,-808 553.5,-808 559.5,-814 559.5,-820 559.5,-820 559.5,-832 559.5,-832 559.5,-838 553.5,-844 547.5,-844"/>
<text text-anchor="middle" x="527.5" y="-823.5" font-family="sans" font-size="10.00">assembly</text>
</g>
<!-- 48 -->
<g id="node49" class="node"><title>48</title>
<path fill="none" stroke="#d8c356" stroke-width="2" d="M558,-772C558,-772 497,-772 497,-772 491,-772 485,-766 485,-760 485,-760 485,-748 485,-748 485,-742 491,-736 497,-736 497,-736 558,-736 558,-736 564,-736 570,-742 570,-748 570,-748 570,-760 570,-760 570,-766 564,-772 558,-772"/>
<text text-anchor="middle" x="527.5" y="-751.5" font-family="sans" font-size="10.00">copy_to_fasta</text>
</g>
<!-- 3&#45;&gt;48 -->
<g id="edge56" class="edge"><title>3&#45;&gt;48</title>
<path fill="none" stroke="grey" stroke-width="2" d="M527.5,-807.697C527.5,-799.983 527.5,-790.712 527.5,-782.112"/>
<polygon fill="grey" stroke="grey" stroke-width="2" points="531,-782.104 527.5,-772.104 524,-782.104 531,-782.104"/>
</g>
<!-- 4 -->
<g id="node5" class="node"><title>4</title>
<path fill="none" stroke="#5673d8" stroke-width="2" d="M576.5,-916C576.5,-916 546.5,-916 546.5,-916 540.5,-916 534.5,-910 534.5,-904 534.5,-904 534.5,-892 534.5,-892 534.5,-886 540.5,-880 546.5,-880 546.5,-880 576.5,-880 576.5,-880 582.5,-880 588.5,-886 588.5,-892 588.5,-892 588.5,-904 588.5,-904 588.5,-910 582.5,-916 576.5,-916"/>
<text text-anchor="middle" x="561.5" y="-895.5" font-family="sans" font-size="10.00">prinseq</text>
</g>
<!-- 4&#45;&gt;3 -->
<g id="edge6" class="edge"><title>4&#45;&gt;3</title>
<path fill="none" stroke="grey" stroke-width="2" d="M553.096,-879.697C549.225,-871.728 544.548,-862.1 540.257,-853.264"/>
<polygon fill="grey" stroke="grey" stroke-width="2" points="543.325,-851.57 535.808,-844.104 537.029,-854.629 543.325,-851.57"/>
</g>
<!-- 5 -->
<g id="node6" class="node"><title>5</title>
<path fill="none" stroke="#56c1d8" stroke-width="2" d="M1220,-196C1220,-196 1143,-196 1143,-196 1137,-196 1131,-190 1131,-184 1131,-184 1131,-156 1131,-156 1131,-150 1137,-144 1143,-144 1143,-144 1220,-144 1220,-144 1226,-144 1232,-150 1232,-156 1232,-156 1232,-184 1232,-184 1232,-190 1226,-196 1220,-196"/>
<text text-anchor="middle" x="1181.5" y="-184" font-family="sans" font-size="10.00">fastqc</text>
<text text-anchor="middle" x="1181.5" y="-173" font-family="sans" font-size="10.00">read: 2</text>
<text text-anchor="middle" x="1181.5" y="-162" font-family="sans" font-size="10.00">sample: S2016BY</text>
<text text-anchor="middle" x="1181.5" y="-151" font-family="sans" font-size="10.00">unit: A</text>
</g>
<!-- 5&#45;&gt;29 -->
<g id="edge37" class="edge"><title>5&#45;&gt;29</title>
<path fill="none" stroke="grey" stroke-width="2" d="M1130.8,-147.071C1128,-146.001 1125.22,-144.97 1122.5,-144 1073.05,-126.391 1014.57,-110.15 977.504,-100.409"/>
<polygon fill="grey" stroke="grey" stroke-width="2" points="978.204,-96.9739 967.644,-97.8374 976.437,-103.747 978.204,-96.9739"/>
</g>
<!-- 6 -->
<g id="node7" class="node"><title>6</title>
<path fill="none" stroke="#56d863" stroke-width="2" d="M450.5,-108C450.5,-108 388.5,-108 388.5,-108 382.5,-108 376.5,-102 376.5,-96 376.5,-96 376.5,-84 376.5,-84 376.5,-78 382.5,-72 388.5,-72 388.5,-72 450.5,-72 450.5,-72 456.5,-72 462.5,-78 462.5,-84 462.5,-84 462.5,-96 462.5,-96 462.5,-102 456.5,-108 450.5,-108"/>
<text text-anchor="middle" x="419.5" y="-87.5" font-family="sans" font-size="10.00">merge_results</text>
</g>
<!-- 40 -->
<g id="node41" class="node"><title>40</title>
<path fill="none" stroke="#80d856" stroke-width="2" d="M516.5,-36C516.5,-36 486.5,-36 486.5,-36 480.5,-36 474.5,-30 474.5,-24 474.5,-24 474.5,-12 474.5,-12 474.5,-6 480.5,-0 486.5,-0 486.5,-0 516.5,-0 516.5,-0 522.5,-0 528.5,-6 528.5,-12 528.5,-12 528.5,-24 528.5,-24 528.5,-30 522.5,-36 516.5,-36"/>
<text text-anchor="middle" x="501.5" y="-15.5" font-family="sans" font-size="10.00">all</text>
</g>
<!-- 6&#45;&gt;40 -->
<g id="edge49" class="edge"><title>6&#45;&gt;40</title>
<path fill="none" stroke="grey" stroke-width="2" d="M439.77,-71.6966C449.998,-62.9655 462.561,-52.2405 473.678,-42.7503"/>
<polygon fill="grey" stroke="grey" stroke-width="2" points="476.13,-45.259 481.463,-36.1043 471.585,-39.935 476.13,-45.259"/>
</g>
<!-- 7 -->
<g id="node8" class="node"><title>7</title>
<path fill="none" stroke="#61d856" stroke-width="2" d="M649.5,-700C649.5,-700 619.5,-700 619.5,-700 613.5,-700 607.5,-694 607.5,-688 607.5,-688 607.5,-676 607.5,-676 607.5,-670 613.5,-664 619.5,-664 619.5,-664 649.5,-664 649.5,-664 655.5,-664 661.5,-670 661.5,-676 661.5,-676 661.5,-688 661.5,-688 661.5,-694 655.5,-700 649.5,-700"/>
<text text-anchor="middle" x="634.5" y="-679.5" font-family="sans" font-size="10.00">cdhit</text>
</g>
<!-- 18 -->
<g id="node19" class="node"><title>18</title>
<path fill="none" stroke="#97d856" stroke-width="2" d="M667,-628C667,-628 602,-628 602,-628 596,-628 590,-622 590,-616 590,-616 590,-604 590,-604 590,-598 596,-592 602,-592 602,-592 667,-592 667,-592 673,-592 679,-598 679,-604 679,-604 679,-616 679,-616 679,-622 673,-628 667,-628"/>
<text text-anchor="middle" x="634.5" y="-607.5" font-family="sans" font-size="10.00">cluster_sorting</text>
</g>
<!-- 7&#45;&gt;18 -->
<g id="edge21" class="edge"><title>7&#45;&gt;18</title>
<path fill="none" stroke="grey" stroke-width="2" d="M634.5,-663.697C634.5,-655.983 634.5,-646.712 634.5,-638.112"/>
<polygon fill="grey" stroke="grey" stroke-width="2" points="638,-638.104 634.5,-628.104 631,-638.104 638,-638.104"/>
</g>
<!-- 8 -->
<g id="node9" class="node"><title>8</title>
<path fill="none" stroke="#56a9d8" stroke-width="2" d="M654.5,-844C654.5,-844 614.5,-844 614.5,-844 608.5,-844 602.5,-838 602.5,-832 602.5,-832 602.5,-820 602.5,-820 602.5,-814 608.5,-808 614.5,-808 614.5,-808 654.5,-808 654.5,-808 660.5,-808 666.5,-814 666.5,-820 666.5,-820 666.5,-832 666.5,-832 666.5,-838 660.5,-844 654.5,-844"/>
<text text-anchor="middle" x="634.5" y="-823.5" font-family="sans" font-size="10.00">assembly</text>
</g>
<!-- 42 -->
<g id="node43" class="node"><title>42</title>
<path fill="none" stroke="#d8c356" stroke-width="2" d="M665,-772C665,-772 604,-772 604,-772 598,-772 592,-766 592,-760 592,-760 592,-748 592,-748 592,-742 598,-736 604,-736 604,-736 665,-736 665,-736 671,-736 677,-742 677,-748 677,-748 677,-760 677,-760 677,-766 671,-772 665,-772"/>
<text text-anchor="middle" x="634.5" y="-751.5" font-family="sans" font-size="10.00">copy_to_fasta</text>
</g>
<!-- 8&#45;&gt;42 -->
<g id="edge52" class="edge"><title>8&#45;&gt;42</title>
<path fill="none" stroke="grey" stroke-width="2" d="M634.5,-807.697C634.5,-799.983 634.5,-790.712 634.5,-782.112"/>
<polygon fill="grey" stroke="grey" stroke-width="2" points="638,-782.104 634.5,-772.104 631,-782.104 638,-782.104"/>
</g>
<!-- 9 -->
<g id="node10" class="node"><title>9</title>
<path fill="none" stroke="#56c1d8" stroke-width="2" d="M1341,-196C1341,-196 1262,-196 1262,-196 1256,-196 1250,-190 1250,-184 1250,-184 1250,-156 1250,-156 1250,-150 1256,-144 1262,-144 1262,-144 1341,-144 1341,-144 1347,-144 1353,-150 1353,-156 1353,-156 1353,-184 1353,-184 1353,-190 1347,-196 1341,-196"/>
<text text-anchor="middle" x="1301.5" y="-184" font-family="sans" font-size="10.00">fastqc</text>
<text text-anchor="middle" x="1301.5" y="-173" font-family="sans" font-size="10.00">read: 1</text>
<text text-anchor="middle" x="1301.5" y="-162" font-family="sans" font-size="10.00">sample: S2016RU</text>
<text text-anchor="middle" x="1301.5" y="-151" font-family="sans" font-size="10.00">unit: A</text>
</g>
<!-- 9&#45;&gt;29 -->
<g id="edge34" class="edge"><title>9&#45;&gt;29</title>
<path fill="none" stroke="grey" stroke-width="2" d="M1249.72,-146.603C1246.96,-145.668 1244.21,-144.792 1241.5,-144 1148.49,-116.797 1034.99,-101.433 977.579,-94.8612"/>
<polygon fill="grey" stroke="grey" stroke-width="2" points="977.856,-91.3705 967.528,-93.7356 977.077,-98.327 977.856,-91.3705"/>
</g>
<!-- 10 -->
<g id="node11" class="node"><title>10</title>
<path fill="none" stroke="#97d856" stroke-width="2" d="M346,-628C346,-628 281,-628 281,-628 275,-628 269,-622 269,-616 269,-616 269,-604 269,-604 269,-598 275,-592 281,-592 281,-592 346,-592 346,-592 352,-592 358,-598 358,-604 358,-604 358,-616 358,-616 358,-622 352,-628 346,-628"/>
<text text-anchor="middle" x="313.5" y="-607.5" font-family="sans" font-size="10.00">cluster_sorting</text>
</g>
<!-- 10&#45;&gt;2 -->
<g id="edge5" class="edge"><title>10&#45;&gt;2</title>
<path fill="none" stroke="grey" stroke-width="2" d="M320.174,-591.697C323.215,-583.813 326.883,-574.304 330.261,-565.546"/>
<polygon fill="grey" stroke="grey" stroke-width="2" points="333.569,-566.694 333.903,-556.104 327.038,-564.175 333.569,-566.694"/>
</g>
<!-- 11 -->
<g id="node12" class="node"><title>11</title>
<path fill="none" stroke="#56d882" stroke-width="2" d="M444.5,-556C444.5,-556 414.5,-556 414.5,-556 408.5,-556 402.5,-550 402.5,-544 402.5,-544 402.5,-532 402.5,-532 402.5,-526 408.5,-520 414.5,-520 414.5,-520 444.5,-520 444.5,-520 450.5,-520 456.5,-526 456.5,-532 456.5,-532 456.5,-544 456.5,-544 456.5,-550 450.5,-556 444.5,-556"/>
<text text-anchor="middle" x="429.5" y="-535.5" font-family="sans" font-size="10.00">uchime</text>
</g>
<!-- 11&#45;&gt;0 -->
<g id="edge2" class="edge"><title>11&#45;&gt;0</title>
<path fill="none" stroke="grey" stroke-width="2" d="M440.376,-519.697C445.492,-511.559 451.695,-501.689 457.345,-492.701"/>
<polygon fill="grey" stroke="grey" stroke-width="2" points="460.39,-494.433 462.749,-484.104 454.464,-490.708 460.39,-494.433"/>
</g>
<!-- 12 -->
<g id="node13" class="node"><title>12</title>
<path fill="none" stroke="#56d882" stroke-width="2" d="M533.5,-556C533.5,-556 503.5,-556 503.5,-556 497.5,-556 491.5,-550 491.5,-544 491.5,-544 491.5,-532 491.5,-532 491.5,-526 497.5,-520 503.5,-520 503.5,-520 533.5,-520 533.5,-520 539.5,-520 545.5,-526 545.5,-532 545.5,-532 545.5,-544 545.5,-544 545.5,-550 539.5,-556 533.5,-556"/>
<text text-anchor="middle" x="518.5" y="-535.5" font-family="sans" font-size="10.00">uchime</text>
</g>
<!-- 12&#45;&gt;0 -->
<g id="edge4" class="edge"><title>12&#45;&gt;0</title>
<path fill="none" stroke="grey" stroke-width="2" d="M507.376,-519.697C502.145,-511.559 495.8,-501.689 490.022,-492.701"/>
<polygon fill="grey" stroke="grey" stroke-width="2" points="492.847,-490.623 484.496,-484.104 486.959,-494.409 492.847,-490.623"/>
</g>
<!-- 13 -->
<g id="node14" class="node"><title>13</title>
<path fill="none" stroke="#56c1d8" stroke-width="2" d="M1460,-196C1460,-196 1383,-196 1383,-196 1377,-196 1371,-190 1371,-184 1371,-184 1371,-156 1371,-156 1371,-150 1377,-144 1383,-144 1383,-144 1460,-144 1460,-144 1466,-144 1472,-150 1472,-156 1472,-156 1472,-184 1472,-184 1472,-190 1466,-196 1460,-196"/>
<text text-anchor="middle" x="1421.5" y="-184" font-family="sans" font-size="10.00">fastqc</text>
<text text-anchor="middle" x="1421.5" y="-173" font-family="sans" font-size="10.00">read: 2</text>
<text text-anchor="middle" x="1421.5" y="-162" font-family="sans" font-size="10.00">sample: S2016BY</text>
<text text-anchor="middle" x="1421.5" y="-151" font-family="sans" font-size="10.00">unit: B</text>
</g>
<!-- 13&#45;&gt;29 -->
<g id="edge39" class="edge"><title>13&#45;&gt;29</title>
<path fill="none" stroke="grey" stroke-width="2" d="M1370.97,-146.541C1368.13,-145.608 1365.29,-144.752 1362.5,-144 1223.86,-106.693 1052.38,-95.4827 977.923,-92.2485"/>
<polygon fill="grey" stroke="grey" stroke-width="2" points="977.792,-88.7402 967.657,-91.827 977.505,-95.7343 977.792,-88.7402"/>
</g>
<!-- 14 -->
<g id="node15" class="node"><title>14</title>
<path fill="none" stroke="#56c1d8" stroke-width="2" d="M621,-196C621,-196 542,-196 542,-196 536,-196 530,-190 530,-184 530,-184 530,-156 530,-156 530,-150 536,-144 542,-144 542,-144 621,-144 621,-144 627,-144 633,-150 633,-156 633,-156 633,-184 633,-184 633,-190 627,-196 621,-196"/>
<text text-anchor="middle" x="581.5" y="-184" font-family="sans" font-size="10.00">fastqc</text>
<text text-anchor="middle" x="581.5" y="-173" font-family="sans" font-size="10.00">read: 2</text>
<text text-anchor="middle" x="581.5" y="-162" font-family="sans" font-size="10.00">sample: S2016RU</text>
<text text-anchor="middle" x="581.5" y="-151" font-family="sans" font-size="10.00">unit: A</text>
</g>
<!-- 14&#45;&gt;29 -->
<g id="edge35" class="edge"><title>14&#45;&gt;29</title>
<path fill="none" stroke="grey" stroke-width="2" d="M633.147,-146.957C636.288,-145.89 639.422,-144.893 642.5,-144 734.429,-117.318 846.417,-101.773 903.371,-95.0249"/>
<polygon fill="grey" stroke="grey" stroke-width="2" points="903.818,-98.4965 913.348,-93.8666 903.011,-91.5432 903.818,-98.4965"/>
</g>
<!-- 15 -->
<g id="node16" class="node"><title>15</title>
<path fill="none" stroke="#568ad8" stroke-width="2" d="M573,-1004C573,-1004 496,-1004 496,-1004 490,-1004 484,-998 484,-992 484,-992 484,-964 484,-964 484,-958 490,-952 496,-952 496,-952 573,-952 573,-952 579,-952 585,-958 585,-964 585,-964 585,-992 585,-992 585,-998 579,-1004 573,-1004"/>
<text text-anchor="middle" x="534.5" y="-992" font-family="sans" font-size="10.00">unzip</text>
<text text-anchor="middle" x="534.5" y="-981" font-family="sans" font-size="10.00">read: 1</text>
<text text-anchor="middle" x="534.5" y="-970" font-family="sans" font-size="10.00">sample: S2016BY</text>
<text text-anchor="middle" x="534.5" y="-959" font-family="sans" font-size="10.00">unit: A</text>
</g>
<!-- 15&#45;&gt;4 -->
<g id="edge8" class="edge"><title>15&#45;&gt;4</title>
<path fill="none" stroke="grey" stroke-width="2" d="M543.192,-951.891C546.041,-943.659 549.219,-934.477 552.118,-926.104"/>
<polygon fill="grey" stroke="grey" stroke-width="2" points="555.51,-927.005 555.473,-916.411 548.895,-924.716 555.51,-927.005"/>
</g>
<!-- 16 -->
<g id="node17" class="node"><title>16</title>
<path fill="none" stroke="#56a9d8" stroke-width="2" d="M333.5,-844C333.5,-844 293.5,-844 293.5,-844 287.5,-844 281.5,-838 281.5,-832 281.5,-832 281.5,-820 281.5,-820 281.5,-814 287.5,-808 293.5,-808 293.5,-808 333.5,-808 333.5,-808 339.5,-808 345.5,-814 345.5,-820 345.5,-820 345.5,-832 345.5,-832 345.5,-838 339.5,-844 333.5,-844"/>
<text text-anchor="middle" x="313.5" y="-823.5" font-family="sans" font-size="10.00">assembly</text>
</g>
<!-- 33 -->
<g id="node34" class="node"><title>33</title>
<path fill="none" stroke="#d8c356" stroke-width="2" d="M344,-772C344,-772 283,-772 283,-772 277,-772 271,-766 271,-760 271,-760 271,-748 271,-748 271,-742 277,-736 283,-736 283,-736 344,-736 344,-736 350,-736 356,-742 356,-748 356,-748 356,-760 356,-760 356,-766 350,-772 344,-772"/>
<text text-anchor="middle" x="313.5" y="-751.5" font-family="sans" font-size="10.00">copy_to_fasta</text>
</g>
<!-- 16&#45;&gt;33 -->
<g id="edge43" class="edge"><title>16&#45;&gt;33</title>
<path fill="none" stroke="grey" stroke-width="2" d="M313.5,-807.697C313.5,-799.983 313.5,-790.712 313.5,-782.112"/>
<polygon fill="grey" stroke="grey" stroke-width="2" points="317,-782.104 313.5,-772.104 310,-782.104 317,-782.104"/>
</g>
<!-- 17 -->
<g id="node18" class="node"><title>17</title>
<path fill="none" stroke="#56c1d8" stroke-width="2" d="M740,-196C740,-196 663,-196 663,-196 657,-196 651,-190 651,-184 651,-184 651,-156 651,-156 651,-150 657,-144 663,-144 663,-144 740,-144 740,-144 746,-144 752,-150 752,-156 752,-156 752,-184 752,-184 752,-190 746,-196 740,-196"/>
<text text-anchor="middle" x="701.5" y="-184" font-family="sans" font-size="10.00">fastqc</text>
<text text-anchor="middle" x="701.5" y="-173" font-family="sans" font-size="10.00">read: 1</text>
<text text-anchor="middle" x="701.5" y="-162" font-family="sans" font-size="10.00">sample: S2016BY</text>
<text text-anchor="middle" x="701.5" y="-151" font-family="sans" font-size="10.00">unit: B</text>
</g>
<!-- 17&#45;&gt;29 -->
<g id="edge38" class="edge"><title>17&#45;&gt;29</title>
<path fill="none" stroke="grey" stroke-width="2" d="M752.091,-147.474C755.261,-146.264 758.416,-145.095 761.5,-144 809.934,-126.795 867.054,-110.567 903.51,-100.708"/>
<polygon fill="grey" stroke="grey" stroke-width="2" points="904.47,-104.074 913.221,-98.1007 902.655,-97.3137 904.47,-104.074"/>
</g>
<!-- 36 -->
<g id="node37" class="node"><title>36</title>
<path fill="none" stroke="#56d882" stroke-width="2" d="M631.5,-556C631.5,-556 601.5,-556 601.5,-556 595.5,-556 589.5,-550 589.5,-544 589.5,-544 589.5,-532 589.5,-532 589.5,-526 595.5,-520 601.5,-520 601.5,-520 631.5,-520 631.5,-520 637.5,-520 643.5,-526 643.5,-532 643.5,-532 643.5,-544 643.5,-544 643.5,-550 637.5,-556 631.5,-556"/>
<text text-anchor="middle" x="616.5" y="-535.5" font-family="sans" font-size="10.00">uchime</text>
</g>
<!-- 18&#45;&gt;36 -->
<g id="edge44" class="edge"><title>18&#45;&gt;36</title>
<path fill="none" stroke="grey" stroke-width="2" d="M630.051,-591.697C628.045,-583.898 625.631,-574.509 623.399,-565.829"/>
<polygon fill="grey" stroke="grey" stroke-width="2" points="626.778,-564.918 620.898,-556.104 619.999,-566.661 626.778,-564.918"/>
</g>
<!-- 19 -->
<g id="node20" class="node"><title>19</title>
<path fill="none" stroke="#61d856" stroke-width="2" d="M435.5,-700C435.5,-700 405.5,-700 405.5,-700 399.5,-700 393.5,-694 393.5,-688 393.5,-688 393.5,-676 393.5,-676 393.5,-670 399.5,-664 405.5,-664 405.5,-664 435.5,-664 435.5,-664 441.5,-664 447.5,-670 447.5,-676 447.5,-676 447.5,-688 447.5,-688 447.5,-694 441.5,-700 435.5,-700"/>
<text text-anchor="middle" x="420.5" y="-679.5" font-family="sans" font-size="10.00">cdhit</text>
</g>
<!-- 20 -->
<g id="node21" class="node"><title>20</title>
<path fill="none" stroke="#97d856" stroke-width="2" d="M453,-628C453,-628 388,-628 388,-628 382,-628 376,-622 376,-616 376,-616 376,-604 376,-604 376,-598 382,-592 388,-592 388,-592 453,-592 453,-592 459,-592 465,-598 465,-604 465,-604 465,-616 465,-616 465,-622 459,-628 453,-628"/>
<text text-anchor="middle" x="420.5" y="-607.5" font-family="sans" font-size="10.00">cluster_sorting</text>
</g>
<!-- 19&#45;&gt;20 -->
<g id="edge23" class="edge"><title>19&#45;&gt;20</title>
<path fill="none" stroke="grey" stroke-width="2" d="M420.5,-663.697C420.5,-655.983 420.5,-646.712 420.5,-638.112"/>
<polygon fill="grey" stroke="grey" stroke-width="2" points="424,-638.104 420.5,-628.104 417,-638.104 424,-638.104"/>
</g>
<!-- 20&#45;&gt;11 -->
<g id="edge17" class="edge"><title>20&#45;&gt;11</title>
<path fill="none" stroke="grey" stroke-width="2" d="M422.725,-591.697C423.717,-583.983 424.908,-574.712 426.014,-566.112"/>
<polygon fill="grey" stroke="grey" stroke-width="2" points="429.497,-566.469 427.301,-556.104 422.554,-565.576 429.497,-566.469"/>
</g>
<!-- 21 -->
<g id="node22" class="node"><title>21</title>
<path fill="none" stroke="#56d89a" stroke-width="2" stroke-dasharray="5,2" d="M504.5,-916C504.5,-916 444.5,-916 444.5,-916 438.5,-916 432.5,-910 432.5,-904 432.5,-904 432.5,-892 432.5,-892 432.5,-886 438.5,-880 444.5,-880 444.5,-880 504.5,-880 504.5,-880 510.5,-880 516.5,-886 516.5,-892 516.5,-892 516.5,-904 516.5,-904 516.5,-910 510.5,-916 504.5,-916"/>
<text text-anchor="middle" x="474.5" y="-895.5" font-family="sans" font-size="10.00">define_primer</text>
</g>
<!-- 21&#45;&gt;3 -->
<g id="edge7" class="edge"><title>21&#45;&gt;3</title>
<path fill="none" stroke="grey" stroke-width="2" d="M487.601,-879.697C493.891,-871.389 501.547,-861.277 508.465,-852.141"/>
<polygon fill="grey" stroke="grey" stroke-width="2" points="511.304,-854.19 514.55,-844.104 505.723,-849.964 511.304,-854.19"/>
</g>
<!-- 21&#45;&gt;8 -->
<g id="edge15" class="edge"><title>21&#45;&gt;8</title>
<path fill="none" stroke="grey" stroke-width="2" d="M513.64,-879.876C537.734,-869.335 568.587,-855.837 593.089,-845.117"/>
<polygon fill="grey" stroke="grey" stroke-width="2" points="594.721,-848.224 602.48,-841.009 591.915,-841.81 594.721,-848.224"/>
</g>
<!-- 21&#45;&gt;16 -->
<g id="edge20" class="edge"><title>21&#45;&gt;16</title>
<path fill="none" stroke="grey" stroke-width="2" d="M435.115,-879.876C410.871,-869.335 379.825,-855.837 355.17,-845.117"/>
<polygon fill="grey" stroke="grey" stroke-width="2" points="356.286,-841.786 345.72,-841.009 353.495,-848.206 356.286,-841.786"/>
</g>
<!-- 25 -->
<g id="node26" class="node"><title>25</title>
<path fill="none" stroke="#56a9d8" stroke-width="2" d="M440.5,-844C440.5,-844 400.5,-844 400.5,-844 394.5,-844 388.5,-838 388.5,-832 388.5,-832 388.5,-820 388.5,-820 388.5,-814 394.5,-808 400.5,-808 400.5,-808 440.5,-808 440.5,-808 446.5,-808 452.5,-814 452.5,-820 452.5,-820 452.5,-832 452.5,-832 452.5,-838 446.5,-844 440.5,-844"/>
<text text-anchor="middle" x="420.5" y="-823.5" font-family="sans" font-size="10.00">assembly</text>
</g>
<!-- 21&#45;&gt;25 -->
<g id="edge27" class="edge"><title>21&#45;&gt;25</title>
<path fill="none" stroke="grey" stroke-width="2" d="M461.152,-879.697C454.743,-871.389 446.942,-861.277 439.894,-852.141"/>
<polygon fill="grey" stroke="grey" stroke-width="2" points="442.574,-849.884 433.695,-844.104 437.032,-854.16 442.574,-849.884"/>
</g>
<!-- 22 -->
<g id="node23" class="node"><title>22</title>
<path fill="none" stroke="#97d856" stroke-width="2" d="M560,-628C560,-628 495,-628 495,-628 489,-628 483,-622 483,-616 483,-616 483,-604 483,-604 483,-598 489,-592 495,-592 495,-592 560,-592 560,-592 566,-592 572,-598 572,-604 572,-604 572,-616 572,-616 572,-622 566,-628 560,-628"/>
<text text-anchor="middle" x="527.5" y="-607.5" font-family="sans" font-size="10.00">cluster_sorting</text>
</g>
<!-- 22&#45;&gt;12 -->
<g id="edge18" class="edge"><title>22&#45;&gt;12</title>
<path fill="none" stroke="grey" stroke-width="2" d="M525.275,-591.697C524.283,-583.983 523.092,-574.712 521.986,-566.112"/>
<polygon fill="grey" stroke="grey" stroke-width="2" points="525.446,-565.576 520.699,-556.104 518.503,-566.469 525.446,-565.576"/>
</g>
<!-- 23 -->
<g id="node24" class="node"><title>23</title>
<path fill="none" stroke="#56c1d8" stroke-width="2" d="M859,-196C859,-196 782,-196 782,-196 776,-196 770,-190 770,-184 770,-184 770,-156 770,-156 770,-150 776,-144 782,-144 782,-144 859,-144 859,-144 865,-144 871,-150 871,-156 871,-156 871,-184 871,-184 871,-190 865,-196 859,-196"/>
<text text-anchor="middle" x="820.5" y="-184" font-family="sans" font-size="10.00">fastqc</text>
<text text-anchor="middle" x="820.5" y="-173" font-family="sans" font-size="10.00">read: 1</text>
<text text-anchor="middle" x="820.5" y="-162" font-family="sans" font-size="10.00">sample: S2016BY</text>
<text text-anchor="middle" x="820.5" y="-151" font-family="sans" font-size="10.00">unit: A</text>
</g>
<!-- 23&#45;&gt;29 -->
<g id="edge36" class="edge"><title>23&#45;&gt;29</title>
<path fill="none" stroke="grey" stroke-width="2" d="M859.129,-143.891C873.995,-134.228 890.874,-123.257 905.39,-113.821"/>
<polygon fill="grey" stroke="grey" stroke-width="2" points="907.607,-116.555 914.084,-108.17 903.792,-110.686 907.607,-116.555"/>
</g>
<!-- 24 -->
<g id="node25" class="node"><title>24</title>
<path fill="none" stroke="#61d856" stroke-width="2" d="M328.5,-700C328.5,-700 298.5,-700 298.5,-700 292.5,-700 286.5,-694 286.5,-688 286.5,-688 286.5,-676 286.5,-676 286.5,-670 292.5,-664 298.5,-664 298.5,-664 328.5,-664 328.5,-664 334.5,-664 340.5,-670 340.5,-676 340.5,-676 340.5,-688 340.5,-688 340.5,-694 334.5,-700 328.5,-700"/>
<text text-anchor="middle" x="313.5" y="-679.5" font-family="sans" font-size="10.00">cdhit</text>
</g>
<!-- 24&#45;&gt;10 -->
<g id="edge16" class="edge"><title>24&#45;&gt;10</title>
<path fill="none" stroke="grey" stroke-width="2" d="M313.5,-663.697C313.5,-655.983 313.5,-646.712 313.5,-638.112"/>
<polygon fill="grey" stroke="grey" stroke-width="2" points="317,-638.104 313.5,-628.104 310,-638.104 317,-638.104"/>
</g>
<!-- 30 -->
<g id="node31" class="node"><title>30</title>
<path fill="none" stroke="#d8c356" stroke-width="2" d="M451,-772C451,-772 390,-772 390,-772 384,-772 378,-766 378,-760 378,-760 378,-748 378,-748 378,-742 384,-736 390,-736 390,-736 451,-736 451,-736 457,-736 463,-742 463,-748 463,-748 463,-760 463,-760 463,-766 457,-772 451,-772"/>
<text text-anchor="middle" x="420.5" y="-751.5" font-family="sans" font-size="10.00">copy_to_fasta</text>
</g>
<!-- 25&#45;&gt;30 -->
<g id="edge40" class="edge"><title>25&#45;&gt;30</title>
<path fill="none" stroke="grey" stroke-width="2" d="M420.5,-807.697C420.5,-799.983 420.5,-790.712 420.5,-782.112"/>
<polygon fill="grey" stroke="grey" stroke-width="2" points="424,-782.104 420.5,-772.104 417,-782.104 424,-782.104"/>
</g>
<!-- 26 -->
<g id="node27" class="node"><title>26</title>
<path fill="none" stroke="#56d8b9" stroke-width="2" d="M423.5,-268C423.5,-268 393.5,-268 393.5,-268 387.5,-268 381.5,-262 381.5,-256 381.5,-256 381.5,-244 381.5,-244 381.5,-238 387.5,-232 393.5,-232 393.5,-232 423.5,-232 423.5,-232 429.5,-232 435.5,-238 435.5,-244 435.5,-244 435.5,-256 435.5,-256 435.5,-262 429.5,-268 423.5,-268"/>
<text text-anchor="middle" x="408.5" y="-247.5" font-family="sans" font-size="10.00">swarm</text>
</g>
<!-- 26&#45;&gt;6 -->
<g id="edge12" class="edge"><title>26&#45;&gt;6</title>
<path fill="none" stroke="grey" stroke-width="2" d="M424.11,-231.774C431.873,-222.03 440.446,-209.184 444.5,-196 451.293,-173.91 449.552,-166.552 444.5,-144 442.486,-135.009 438.768,-125.747 434.804,-117.53"/>
<polygon fill="grey" stroke="grey" stroke-width="2" points="437.815,-115.732 430.125,-108.444 431.592,-118.937 437.815,-115.732"/>
</g>
<!-- 39 -->
<g id="node40" class="node"><title>39</title>
<path fill="none" stroke="#56d8d0" stroke-width="2" d="M423.5,-188C423.5,-188 393.5,-188 393.5,-188 387.5,-188 381.5,-182 381.5,-176 381.5,-176 381.5,-164 381.5,-164 381.5,-158 387.5,-152 393.5,-152 393.5,-152 423.5,-152 423.5,-152 429.5,-152 435.5,-158 435.5,-164 435.5,-164 435.5,-176 435.5,-176 435.5,-182 429.5,-188 423.5,-188"/>
<text text-anchor="middle" x="408.5" y="-167.5" font-family="sans" font-size="10.00">blast</text>
</g>
<!-- 26&#45;&gt;39 -->
<g id="edge46" class="edge"><title>26&#45;&gt;39</title>
<path fill="none" stroke="grey" stroke-width="2" d="M408.5,-231.689C408.5,-221.894 408.5,-209.422 408.5,-198.335"/>
<polygon fill="grey" stroke="grey" stroke-width="2" points="412,-198.262 408.5,-188.262 405,-198.262 412,-198.262"/>
</g>
<!-- 27 -->
<g id="node28" class="node"><title>27</title>
<path fill="none" stroke="#d8ac56" stroke-width="2" d="M431,-340C431,-340 384,-340 384,-340 378,-340 372,-334 372,-328 372,-328 372,-316 372,-316 372,-310 378,-304 384,-304 384,-304 431,-304 431,-304 437,-304 443,-310 443,-316 443,-316 443,-328 443,-328 443,-334 437,-340 431,-340"/>
<text text-anchor="middle" x="407.5" y="-319.5" font-family="sans" font-size="10.00">write_fasta</text>
</g>
<!-- 27&#45;&gt;6 -->
<g id="edge10" class="edge"><title>27&#45;&gt;6</title>
<path fill="none" stroke="grey" stroke-width="2" d="M392.317,-303.703C384.768,-293.939 376.434,-281.095 372.5,-268 356.645,-215.219 352.945,-195.525 372.5,-144 376.468,-133.544 383.548,-123.829 391.028,-115.647"/>
<polygon fill="grey" stroke="grey" stroke-width="2" points="393.731,-117.89 398.233,-108.299 388.733,-112.989 393.731,-117.89"/>
</g>
<!-- 27&#45;&gt;26 -->
<g id="edge28" class="edge"><title>27&#45;&gt;26</title>
<path fill="none" stroke="grey" stroke-width="2" d="M407.747,-303.697C407.857,-295.983 407.99,-286.712 408.113,-278.112"/>
<polygon fill="grey" stroke="grey" stroke-width="2" points="411.612,-278.153 408.256,-268.104 404.613,-278.053 411.612,-278.153"/>
</g>
<!-- 28&#45;&gt;40 -->
<g id="edge47" class="edge"><title>28&#45;&gt;40</title>
<path fill="none" stroke="grey" stroke-width="2" d="M501.5,-303.898C501.5,-253.871 501.5,-107.497 501.5,-46.3432"/>
<polygon fill="grey" stroke="grey" stroke-width="2" points="505,-46.2888 501.5,-36.2889 498,-46.2889 505,-46.2888"/>
</g>
<!-- 29&#45;&gt;40 -->
<g id="edge48" class="edge"><title>29&#45;&gt;40</title>
<path fill="none" stroke="grey" stroke-width="2" d="M913.37,-84.674C837.833,-72.6295 624.992,-38.6913 538.618,-24.9186"/>
<polygon fill="grey" stroke="grey" stroke-width="2" points="539.156,-21.4602 528.729,-23.3418 538.053,-28.3729 539.156,-21.4602"/>
</g>
<!-- 30&#45;&gt;19 -->
<g id="edge22" class="edge"><title>30&#45;&gt;19</title>
<path fill="none" stroke="grey" stroke-width="2" d="M420.5,-735.697C420.5,-727.983 420.5,-718.712 420.5,-710.112"/>
<polygon fill="grey" stroke="grey" stroke-width="2" points="424,-710.104 420.5,-700.104 417,-710.104 424,-710.104"/>
</g>
<!-- 31 -->
<g id="node32" class="node"><title>31</title>
<path fill="none" stroke="#568ad8" stroke-width="2" d="M811,-1004C811,-1004 734,-1004 734,-1004 728,-1004 722,-998 722,-992 722,-992 722,-964 722,-964 722,-958 728,-952 734,-952 734,-952 811,-952 811,-952 817,-952 823,-958 823,-964 823,-964 823,-992 823,-992 823,-998 817,-1004 811,-1004"/>
<text text-anchor="middle" x="772.5" y="-992" font-family="sans" font-size="10.00">unzip</text>
<text text-anchor="middle" x="772.5" y="-981" font-family="sans" font-size="10.00">read: 1</text>
<text text-anchor="middle" x="772.5" y="-970" font-family="sans" font-size="10.00">sample: S2016BY</text>
<text text-anchor="middle" x="772.5" y="-959" font-family="sans" font-size="10.00">unit: B</text>
</g>
<!-- 32 -->
<g id="node33" class="node"><title>32</title>
<path fill="none" stroke="#5673d8" stroke-width="2" d="M787.5,-916C787.5,-916 757.5,-916 757.5,-916 751.5,-916 745.5,-910 745.5,-904 745.5,-904 745.5,-892 745.5,-892 745.5,-886 751.5,-880 757.5,-880 757.5,-880 787.5,-880 787.5,-880 793.5,-880 799.5,-886 799.5,-892 799.5,-892 799.5,-904 799.5,-904 799.5,-910 793.5,-916 787.5,-916"/>
<text text-anchor="middle" x="772.5" y="-895.5" font-family="sans" font-size="10.00">prinseq</text>
</g>
<!-- 31&#45;&gt;32 -->
<g id="edge41" class="edge"><title>31&#45;&gt;32</title>
<path fill="none" stroke="grey" stroke-width="2" d="M772.5,-951.891C772.5,-943.84 772.5,-934.88 772.5,-926.658"/>
<polygon fill="grey" stroke="grey" stroke-width="2" points="776,-926.411 772.5,-916.411 769,-926.411 776,-926.411"/>
</g>
<!-- 32&#45;&gt;8 -->
<g id="edge14" class="edge"><title>32&#45;&gt;8</title>
<path fill="none" stroke="grey" stroke-width="2" d="M745.236,-883.17C725.353,-873.085 698.064,-859.243 675.552,-847.823"/>
<polygon fill="grey" stroke="grey" stroke-width="2" points="677.052,-844.66 666.55,-843.257 673.885,-850.903 677.052,-844.66"/>
</g>
<!-- 33&#45;&gt;24 -->
<g id="edge25" class="edge"><title>33&#45;&gt;24</title>
<path fill="none" stroke="grey" stroke-width="2" d="M313.5,-735.697C313.5,-727.983 313.5,-718.712 313.5,-710.112"/>
<polygon fill="grey" stroke="grey" stroke-width="2" points="317,-710.104 313.5,-700.104 310,-710.104 317,-710.104"/>
</g>
<!-- 34 -->
<g id="node35" class="node"><title>34</title>
<path fill="none" stroke="#568ad8" stroke-width="2" d="M333,-1004C333,-1004 254,-1004 254,-1004 248,-1004 242,-998 242,-992 242,-992 242,-964 242,-964 242,-958 248,-952 254,-952 254,-952 333,-952 333,-952 339,-952 345,-958 345,-964 345,-964 345,-992 345,-992 345,-998 339,-1004 333,-1004"/>
<text text-anchor="middle" x="293.5" y="-992" font-family="sans" font-size="10.00">unzip</text>
<text text-anchor="middle" x="293.5" y="-981" font-family="sans" font-size="10.00">read: 2</text>
<text text-anchor="middle" x="293.5" y="-970" font-family="sans" font-size="10.00">sample: S2016RU</text>
<text text-anchor="middle" x="293.5" y="-959" font-family="sans" font-size="10.00">unit: B</text>
</g>
<!-- 46 -->
<g id="node47" class="node"><title>46</title>
<path fill="none" stroke="#5673d8" stroke-width="2" d="M402.5,-916C402.5,-916 372.5,-916 372.5,-916 366.5,-916 360.5,-910 360.5,-904 360.5,-904 360.5,-892 360.5,-892 360.5,-886 366.5,-880 372.5,-880 372.5,-880 402.5,-880 402.5,-880 408.5,-880 414.5,-886 414.5,-892 414.5,-892 414.5,-904 414.5,-904 414.5,-910 408.5,-916 402.5,-916"/>
<text text-anchor="middle" x="387.5" y="-895.5" font-family="sans" font-size="10.00">prinseq</text>
</g>
<!-- 34&#45;&gt;46 -->
<g id="edge55" class="edge"><title>34&#45;&gt;46</title>
<path fill="none" stroke="grey" stroke-width="2" d="M323.76,-951.891C335.075,-942.502 347.879,-931.877 359.028,-922.626"/>
<polygon fill="grey" stroke="grey" stroke-width="2" points="361.347,-925.249 366.808,-916.17 356.877,-919.863 361.347,-925.249"/>
</g>
<!-- 35 -->
<g id="node36" class="node"><title>35</title>
<path fill="none" stroke="#568ad8" stroke-width="2" d="M91,-1004C91,-1004 12,-1004 12,-1004 6,-1004 0,-998 0,-992 0,-992 0,-964 0,-964 0,-958 6,-952 12,-952 12,-952 91,-952 91,-952 97,-952 103,-958 103,-964 103,-964 103,-992 103,-992 103,-998 97,-1004 91,-1004"/>
<text text-anchor="middle" x="51.5" y="-992" font-family="sans" font-size="10.00">unzip</text>
<text text-anchor="middle" x="51.5" y="-981" font-family="sans" font-size="10.00">read: 2</text>
<text text-anchor="middle" x="51.5" y="-970" font-family="sans" font-size="10.00">sample: S2016RU</text>
<text text-anchor="middle" x="51.5" y="-959" font-family="sans" font-size="10.00">unit: A</text>
</g>
<!-- 41 -->
<g id="node42" class="node"><title>41</title>
<path fill="none" stroke="#5673d8" stroke-width="2" d="M187.5,-916C187.5,-916 157.5,-916 157.5,-916 151.5,-916 145.5,-910 145.5,-904 145.5,-904 145.5,-892 145.5,-892 145.5,-886 151.5,-880 157.5,-880 157.5,-880 187.5,-880 187.5,-880 193.5,-880 199.5,-886 199.5,-892 199.5,-892 199.5,-904 199.5,-904 199.5,-910 193.5,-916 187.5,-916"/>
<text text-anchor="middle" x="172.5" y="-895.5" font-family="sans" font-size="10.00">prinseq</text>
</g>
<!-- 35&#45;&gt;41 -->
<g id="edge51" class="edge"><title>35&#45;&gt;41</title>
<path fill="none" stroke="grey" stroke-width="2" d="M90.4512,-951.891C105.441,-942.228 122.46,-931.257 137.098,-921.821"/>
<polygon fill="grey" stroke="grey" stroke-width="2" points="139.355,-924.53 145.864,-916.17 135.563,-918.647 139.355,-924.53"/>
</g>
<!-- 36&#45;&gt;0 -->
<g id="edge1" class="edge"><title>36&#45;&gt;0</title>
<path fill="none" stroke="grey" stroke-width="2" d="M589.266,-523.669C568.949,-513.723 540.77,-499.929 517.301,-488.441"/>
<polygon fill="grey" stroke="grey" stroke-width="2" points="518.754,-485.255 508.233,-484.002 515.676,-491.543 518.754,-485.255"/>
</g>
<!-- 37 -->
<g id="node38" class="node"><title>37</title>
<path fill="none" stroke="#568ad8" stroke-width="2" d="M454,-1004C454,-1004 375,-1004 375,-1004 369,-1004 363,-998 363,-992 363,-992 363,-964 363,-964 363,-958 369,-952 375,-952 375,-952 454,-952 454,-952 460,-952 466,-958 466,-964 466,-964 466,-992 466,-992 466,-998 460,-1004 454,-1004"/>
<text text-anchor="middle" x="414.5" y="-992" font-family="sans" font-size="10.00">unzip</text>
<text text-anchor="middle" x="414.5" y="-981" font-family="sans" font-size="10.00">read: 1</text>
<text text-anchor="middle" x="414.5" y="-970" font-family="sans" font-size="10.00">sample: S2016RU</text>
<text text-anchor="middle" x="414.5" y="-959" font-family="sans" font-size="10.00">unit: B</text>
</g>
<!-- 37&#45;&gt;46 -->
<g id="edge54" class="edge"><title>37&#45;&gt;46</title>
<path fill="none" stroke="grey" stroke-width="2" d="M405.808,-951.891C402.959,-943.659 399.781,-934.477 396.882,-926.104"/>
<polygon fill="grey" stroke="grey" stroke-width="2" points="400.105,-924.716 393.527,-916.411 393.49,-927.005 400.105,-924.716"/>
</g>
<!-- 38&#45;&gt;27 -->
<g id="edge29" class="edge"><title>38&#45;&gt;27</title>
<path fill="none" stroke="grey" stroke-width="2" d="M436.86,-375.697C432.373,-367.644 426.941,-357.894 421.976,-348.982"/>
<polygon fill="grey" stroke="grey" stroke-width="2" points="424.954,-347.137 417.03,-340.104 418.839,-350.544 424.954,-347.137"/>
</g>
<!-- 38&#45;&gt;28 -->
<g id="edge31" class="edge"><title>38&#45;&gt;28</title>
<path fill="none" stroke="grey" stroke-width="2" d="M460.096,-375.697C466.623,-367.389 474.568,-357.277 481.747,-348.141"/>
<polygon fill="grey" stroke="grey" stroke-width="2" points="484.635,-350.13 488.061,-340.104 479.131,-345.805 484.635,-350.13"/>
</g>
<!-- 39&#45;&gt;6 -->
<g id="edge11" class="edge"><title>39&#45;&gt;6</title>
<path fill="none" stroke="grey" stroke-width="2" d="M410.941,-151.689C412.323,-141.894 414.082,-129.422 415.645,-118.335"/>
<polygon fill="grey" stroke="grey" stroke-width="2" points="419.135,-118.653 417.066,-108.262 412.203,-117.676 419.135,-118.653"/>
</g>
<!-- 41&#45;&gt;16 -->
<g id="edge19" class="edge"><title>41&#45;&gt;16</title>
<path fill="none" stroke="grey" stroke-width="2" d="M199.686,-883.503C220.315,-873.262 249.022,-859.01 272.444,-847.382"/>
<polygon fill="grey" stroke="grey" stroke-width="2" points="274.06,-850.488 281.461,-842.906 270.948,-844.218 274.06,-850.488"/>
</g>
<!-- 42&#45;&gt;7 -->
<g id="edge13" class="edge"><title>42&#45;&gt;7</title>
<path fill="none" stroke="grey" stroke-width="2" d="M634.5,-735.697C634.5,-727.983 634.5,-718.712 634.5,-710.112"/>
<polygon fill="grey" stroke="grey" stroke-width="2" points="638,-710.104 634.5,-700.104 631,-710.104 638,-710.104"/>
</g>
<!-- 43 -->
<g id="node44" class="node"><title>43</title>
<path fill="none" stroke="#568ad8" stroke-width="2" d="M692,-1004C692,-1004 615,-1004 615,-1004 609,-1004 603,-998 603,-992 603,-992 603,-964 603,-964 603,-958 609,-952 615,-952 615,-952 692,-952 692,-952 698,-952 704,-958 704,-964 704,-964 704,-992 704,-992 704,-998 698,-1004 692,-1004"/>
<text text-anchor="middle" x="653.5" y="-992" font-family="sans" font-size="10.00">unzip</text>
<text text-anchor="middle" x="653.5" y="-981" font-family="sans" font-size="10.00">read: 2</text>
<text text-anchor="middle" x="653.5" y="-970" font-family="sans" font-size="10.00">sample: S2016BY</text>
<text text-anchor="middle" x="653.5" y="-959" font-family="sans" font-size="10.00">unit: A</text>
</g>
<!-- 43&#45;&gt;4 -->
<g id="edge9" class="edge"><title>43&#45;&gt;4</title>
<path fill="none" stroke="grey" stroke-width="2" d="M623.884,-951.891C612.917,-942.593 600.521,-932.083 589.685,-922.896"/>
<polygon fill="grey" stroke="grey" stroke-width="2" points="591.643,-919.967 581.752,-916.17 587.116,-925.307 591.643,-919.967"/>
</g>
<!-- 44 -->
<g id="node45" class="node"><title>44</title>
<path fill="none" stroke="#568ad8" stroke-width="2" d="M212,-1004C212,-1004 133,-1004 133,-1004 127,-1004 121,-998 121,-992 121,-992 121,-964 121,-964 121,-958 127,-952 133,-952 133,-952 212,-952 212,-952 218,-952 224,-958 224,-964 224,-964 224,-992 224,-992 224,-998 218,-1004 212,-1004"/>
<text text-anchor="middle" x="172.5" y="-992" font-family="sans" font-size="10.00">unzip</text>
<text text-anchor="middle" x="172.5" y="-981" font-family="sans" font-size="10.00">read: 1</text>
<text text-anchor="middle" x="172.5" y="-970" font-family="sans" font-size="10.00">sample: S2016RU</text>
<text text-anchor="middle" x="172.5" y="-959" font-family="sans" font-size="10.00">unit: A</text>
</g>
<!-- 44&#45;&gt;41 -->
<g id="edge50" class="edge"><title>44&#45;&gt;41</title>
<path fill="none" stroke="grey" stroke-width="2" d="M172.5,-951.891C172.5,-943.84 172.5,-934.88 172.5,-926.658"/>
<polygon fill="grey" stroke="grey" stroke-width="2" points="176,-926.411 172.5,-916.411 169,-926.411 176,-926.411"/>
</g>
<!-- 45 -->
<g id="node46" class="node"><title>45</title>
<path fill="none" stroke="#61d856" stroke-width="2" d="M542.5,-700C542.5,-700 512.5,-700 512.5,-700 506.5,-700 500.5,-694 500.5,-688 500.5,-688 500.5,-676 500.5,-676 500.5,-670 506.5,-664 512.5,-664 512.5,-664 542.5,-664 542.5,-664 548.5,-664 554.5,-670 554.5,-676 554.5,-676 554.5,-688 554.5,-688 554.5,-694 548.5,-700 542.5,-700"/>
<text text-anchor="middle" x="527.5" y="-679.5" font-family="sans" font-size="10.00">cdhit</text>
</g>
<!-- 45&#45;&gt;22 -->
<g id="edge24" class="edge"><title>45&#45;&gt;22</title>
<path fill="none" stroke="grey" stroke-width="2" d="M527.5,-663.697C527.5,-655.983 527.5,-646.712 527.5,-638.112"/>
<polygon fill="grey" stroke="grey" stroke-width="2" points="531,-638.104 527.5,-628.104 524,-638.104 531,-638.104"/>
</g>
<!-- 46&#45;&gt;25 -->
<g id="edge26" class="edge"><title>46&#45;&gt;25</title>
<path fill="none" stroke="grey" stroke-width="2" d="M395.657,-879.697C399.414,-871.728 403.953,-862.1 408.118,-853.264"/>
<polygon fill="grey" stroke="grey" stroke-width="2" points="411.338,-854.642 412.437,-844.104 405.006,-851.657 411.338,-854.642"/>
</g>
<!-- 47 -->
<g id="node48" class="node"><title>47</title>
<path fill="none" stroke="#568ad8" stroke-width="2" d="M930,-1004C930,-1004 853,-1004 853,-1004 847,-1004 841,-998 841,-992 841,-992 841,-964 841,-964 841,-958 847,-952 853,-952 853,-952 930,-952 930,-952 936,-952 942,-958 942,-964 942,-964 942,-992 942,-992 942,-998 936,-1004 930,-1004"/>
<text text-anchor="middle" x="891.5" y="-992" font-family="sans" font-size="10.00">unzip</text>
<text text-anchor="middle" x="891.5" y="-981" font-family="sans" font-size="10.00">read: 2</text>
<text text-anchor="middle" x="891.5" y="-970" font-family="sans" font-size="10.00">sample: S2016BY</text>
<text text-anchor="middle" x="891.5" y="-959" font-family="sans" font-size="10.00">unit: B</text>
</g>
<!-- 47&#45;&gt;32 -->
<g id="edge42" class="edge"><title>47&#45;&gt;32</title>
<path fill="none" stroke="grey" stroke-width="2" d="M853.193,-951.891C838.451,-942.228 821.713,-931.257 807.317,-921.821"/>
<polygon fill="grey" stroke="grey" stroke-width="2" points="808.978,-918.725 798.696,-916.17 805.14,-924.579 808.978,-918.725"/>
</g>
<!-- 48&#45;&gt;45 -->
<g id="edge53" class="edge"><title>48&#45;&gt;45</title>
<path fill="none" stroke="grey" stroke-width="2" d="M527.5,-735.697C527.5,-727.983 527.5,-718.712 527.5,-710.112"/>
<polygon fill="grey" stroke="grey" stroke-width="2" points="531,-710.104 527.5,-700.104 524,-710.104 531,-710.104"/>
</g>
<!-- 49 -->
<g id="node50" class="node"><title>49</title>
<path fill="none" stroke="#56c1d8" stroke-width="2" d="M980,-196C980,-196 901,-196 901,-196 895,-196 889,-190 889,-184 889,-184 889,-156 889,-156 889,-150 895,-144 901,-144 901,-144 980,-144 980,-144 986,-144 992,-150 992,-156 992,-156 992,-184 992,-184 992,-190 986,-196 980,-196"/>
<text text-anchor="middle" x="940.5" y="-184" font-family="sans" font-size="10.00">fastqc</text>
<text text-anchor="middle" x="940.5" y="-173" font-family="sans" font-size="10.00">read: 2</text>
<text text-anchor="middle" x="940.5" y="-162" font-family="sans" font-size="10.00">sample: S2016RU</text>
<text text-anchor="middle" x="940.5" y="-151" font-family="sans" font-size="10.00">unit: B</text>
</g>
<!-- 49&#45;&gt;29 -->
<g id="edge33" class="edge"><title>49&#45;&gt;29</title>
<path fill="none" stroke="grey" stroke-width="2" d="M940.5,-143.891C940.5,-135.84 940.5,-126.88 940.5,-118.658"/>
<polygon fill="grey" stroke="grey" stroke-width="2" points="944,-118.411 940.5,-108.411 937,-118.411 944,-118.411"/>
</g>
</g>
</svg>
