<?xml version="1.0" encoding="UTF-8" standalone="no"?>
<!DOCTYPE svg PUBLIC "-//W3C//DTD SVG 1.1//EN"
 "http://www.w3.org/Graphics/SVG/1.1/DTD/svg11.dtd">
<!-- Generated by graphviz version 2.38.0 (20140413.2041)
 -->
<!-- Title: snakemake_dag Pages: 1 -->
<svg width="493pt" height="924pt"
 viewBox="0.00 0.00 493.00 924.00" xmlns="http://www.w3.org/2000/svg" xmlns:xlink="http://www.w3.org/1999/xlink">
<g id="graph0" class="graph" transform="scale(1 1) rotate(0) translate(4 920)">
<title>snakemake_dag</title>
<polygon fill="white" stroke="none" points="-4,4 -4,-920 489,-920 489,4 -4,4"/>
<!-- 0 -->
<g id="node1" class="node"><title>0</title>
<path fill="none" stroke="#d87556" stroke-width="2" stroke-dasharray="5,2" d="M344.5,-828C344.5,-828 314.5,-828 314.5,-828 308.5,-828 302.5,-822 302.5,-816 302.5,-816 302.5,-804 302.5,-804 302.5,-798 308.5,-792 314.5,-792 314.5,-792 344.5,-792 344.5,-792 350.5,-792 356.5,-798 356.5,-804 356.5,-804 356.5,-816 356.5,-816 356.5,-822 350.5,-828 344.5,-828"/>
<text text-anchor="middle" x="329.5" y="-807.5" font-family="sans" font-size="10.00">prinseq</text>
</g>
<!-- 21 -->
<g id="node22" class="node"><title>21</title>
<path fill="none" stroke="#afd856" stroke-width="2" stroke-dasharray="5,2" d="M315.5,-756C315.5,-756 275.5,-756 275.5,-756 269.5,-756 263.5,-750 263.5,-744 263.5,-744 263.5,-732 263.5,-732 263.5,-726 269.5,-720 275.5,-720 275.5,-720 315.5,-720 315.5,-720 321.5,-720 327.5,-726 327.5,-732 327.5,-732 327.5,-744 327.5,-744 327.5,-750 321.5,-756 315.5,-756"/>
<text text-anchor="middle" x="295.5" y="-735.5" font-family="sans" font-size="10.00">assembly</text>
</g>
<!-- 0&#45;&gt;21 -->
<g id="edge23" class="edge"><title>0&#45;&gt;21</title>
<path fill="none" stroke="grey" stroke-width="2" d="M321.096,-791.697C317.225,-783.728 312.548,-774.1 308.257,-765.264"/>
<polygon fill="grey" stroke="grey" stroke-width="2" points="311.325,-763.57 303.808,-756.104 305.029,-766.629 311.325,-763.57"/>
</g>
<!-- 1 -->
<g id="node2" class="node"><title>1</title>
<path fill="none" stroke="#70d856" stroke-width="2" stroke-dasharray="5,2" d="M221,-540C221,-540 156,-540 156,-540 150,-540 144,-534 144,-528 144,-528 144,-516 144,-516 144,-510 150,-504 156,-504 156,-504 221,-504 221,-504 227,-504 233,-510 233,-516 233,-516 233,-528 233,-528 233,-534 227,-540 221,-540"/>
<text text-anchor="middle" x="188.5" y="-519.5" font-family="sans" font-size="10.00">cluster_sorting</text>
</g>
<!-- 16 -->
<g id="node17" class="node"><title>16</title>
<path fill="none" stroke="#d8ac56" stroke-width="2" stroke-dasharray="5,2" d="M220.5,-468C220.5,-468 190.5,-468 190.5,-468 184.5,-468 178.5,-462 178.5,-456 178.5,-456 178.5,-444 178.5,-444 178.5,-438 184.5,-432 190.5,-432 190.5,-432 220.5,-432 220.5,-432 226.5,-432 232.5,-438 232.5,-444 232.5,-444 232.5,-456 232.5,-456 232.5,-462 226.5,-468 220.5,-468"/>
<text text-anchor="middle" x="205.5" y="-447.5" font-family="sans" font-size="10.00">uchime</text>
</g>
<!-- 1&#45;&gt;16 -->
<g id="edge16" class="edge"><title>1&#45;&gt;16</title>
<path fill="none" stroke="grey" stroke-width="2" d="M192.702,-503.697C194.596,-495.898 196.877,-486.509 198.984,-477.829"/>
<polygon fill="grey" stroke="grey" stroke-width="2" points="202.387,-478.648 201.346,-468.104 195.585,-476.996 202.387,-478.648"/>
</g>
<!-- 2 -->
<g id="node3" class="node"><title>2</title>
<path fill="none" stroke="#d85656" stroke-width="2" stroke-dasharray="5,2" d="M89,-916C89,-916 12,-916 12,-916 6,-916 0,-910 0,-904 0,-904 0,-876 0,-876 0,-870 6,-864 12,-864 12,-864 89,-864 89,-864 95,-864 101,-870 101,-876 101,-876 101,-904 101,-904 101,-910 95,-916 89,-916"/>
<text text-anchor="middle" x="50.5" y="-904" font-family="sans" font-size="10.00">unzip</text>
<text text-anchor="middle" x="50.5" y="-893" font-family="sans" font-size="10.00">read: 1</text>
<text text-anchor="middle" x="50.5" y="-882" font-family="sans" font-size="10.00">sample: S2016BY</text>
<text text-anchor="middle" x="50.5" y="-871" font-family="sans" font-size="10.00">unit: A</text>
</g>
<!-- 5 -->
<g id="node6" class="node"><title>5</title>
<path fill="none" stroke="#d87556" stroke-width="2" stroke-dasharray="5,2" d="M170.5,-828C170.5,-828 140.5,-828 140.5,-828 134.5,-828 128.5,-822 128.5,-816 128.5,-816 128.5,-804 128.5,-804 128.5,-798 134.5,-792 140.5,-792 140.5,-792 170.5,-792 170.5,-792 176.5,-792 182.5,-798 182.5,-804 182.5,-804 182.5,-816 182.5,-816 182.5,-822 176.5,-828 170.5,-828"/>
<text text-anchor="middle" x="155.5" y="-807.5" font-family="sans" font-size="10.00">prinseq</text>
</g>
<!-- 2&#45;&gt;5 -->
<g id="edge5" class="edge"><title>2&#45;&gt;5</title>
<path fill="none" stroke="grey" stroke-width="2" d="M84.3006,-863.891C97.0627,-854.411 111.52,-843.671 124.058,-834.357"/>
<polygon fill="grey" stroke="grey" stroke-width="2" points="126.446,-836.943 132.386,-828.17 122.272,-831.324 126.446,-836.943"/>
</g>
<!-- 3 -->
<g id="node4" class="node"><title>3</title>
<path fill="none" stroke="#d85656" stroke-width="2" stroke-dasharray="5,2" d="M354,-916C354,-916 277,-916 277,-916 271,-916 265,-910 265,-904 265,-904 265,-876 265,-876 265,-870 271,-864 277,-864 277,-864 354,-864 354,-864 360,-864 366,-870 366,-876 366,-876 366,-904 366,-904 366,-910 360,-916 354,-916"/>
<text text-anchor="middle" x="315.5" y="-904" font-family="sans" font-size="10.00">unzip</text>
<text text-anchor="middle" x="315.5" y="-893" font-family="sans" font-size="10.00">read: 1</text>
<text text-anchor="middle" x="315.5" y="-882" font-family="sans" font-size="10.00">sample: S2016BY</text>
<text text-anchor="middle" x="315.5" y="-871" font-family="sans" font-size="10.00">unit: B</text>
</g>
<!-- 3&#45;&gt;0 -->
<g id="edge2" class="edge"><title>3&#45;&gt;0</title>
<path fill="none" stroke="grey" stroke-width="2" d="M320.007,-863.891C321.468,-855.749 323.096,-846.679 324.586,-838.381"/>
<polygon fill="grey" stroke="grey" stroke-width="2" points="328.053,-838.872 326.375,-828.411 321.163,-837.635 328.053,-838.872"/>
</g>
<!-- 4 -->
<g id="node5" class="node"><title>4</title>
<path fill="none" stroke="#70d856" stroke-width="2" stroke-dasharray="5,2" d="M328,-540C328,-540 263,-540 263,-540 257,-540 251,-534 251,-528 251,-528 251,-516 251,-516 251,-510 257,-504 263,-504 263,-504 328,-504 328,-504 334,-504 340,-510 340,-516 340,-516 340,-528 340,-528 340,-534 334,-540 328,-540"/>
<text text-anchor="middle" x="295.5" y="-519.5" font-family="sans" font-size="10.00">cluster_sorting</text>
</g>
<!-- 11 -->
<g id="node12" class="node"><title>11</title>
<path fill="none" stroke="#d8ac56" stroke-width="2" stroke-dasharray="5,2" d="M301.5,-468C301.5,-468 271.5,-468 271.5,-468 265.5,-468 259.5,-462 259.5,-456 259.5,-456 259.5,-444 259.5,-444 259.5,-438 265.5,-432 271.5,-432 271.5,-432 301.5,-432 301.5,-432 307.5,-432 313.5,-438 313.5,-444 313.5,-444 313.5,-456 313.5,-456 313.5,-462 307.5,-468 301.5,-468"/>
<text text-anchor="middle" x="286.5" y="-447.5" font-family="sans" font-size="10.00">uchime</text>
</g>
<!-- 4&#45;&gt;11 -->
<g id="edge12" class="edge"><title>4&#45;&gt;11</title>
<path fill="none" stroke="grey" stroke-width="2" d="M293.275,-503.697C292.283,-495.983 291.092,-486.712 289.986,-478.112"/>
<polygon fill="grey" stroke="grey" stroke-width="2" points="293.446,-477.576 288.699,-468.104 286.503,-478.469 293.446,-477.576"/>
</g>
<!-- 23 -->
<g id="node24" class="node"><title>23</title>
<path fill="none" stroke="#afd856" stroke-width="2" stroke-dasharray="5,2" d="M208.5,-756C208.5,-756 168.5,-756 168.5,-756 162.5,-756 156.5,-750 156.5,-744 156.5,-744 156.5,-732 156.5,-732 156.5,-726 162.5,-720 168.5,-720 168.5,-720 208.5,-720 208.5,-720 214.5,-720 220.5,-726 220.5,-732 220.5,-732 220.5,-744 220.5,-744 220.5,-750 214.5,-756 208.5,-756"/>
<text text-anchor="middle" x="188.5" y="-735.5" font-family="sans" font-size="10.00">assembly</text>
</g>
<!-- 5&#45;&gt;23 -->
<g id="edge27" class="edge"><title>5&#45;&gt;23</title>
<path fill="none" stroke="grey" stroke-width="2" d="M163.657,-791.697C167.414,-783.728 171.953,-774.1 176.118,-765.264"/>
<polygon fill="grey" stroke="grey" stroke-width="2" points="179.338,-766.642 180.437,-756.104 173.006,-763.657 179.338,-766.642"/>
</g>
<!-- 6 -->
<g id="node7" class="node"><title>6</title>
<path fill="none" stroke="#56d892" stroke-width="2" stroke-dasharray="5,2" d="M233.5,-324C233.5,-324 203.5,-324 203.5,-324 197.5,-324 191.5,-318 191.5,-312 191.5,-312 191.5,-300 191.5,-300 191.5,-294 197.5,-288 203.5,-288 203.5,-288 233.5,-288 233.5,-288 239.5,-288 245.5,-294 245.5,-300 245.5,-300 245.5,-312 245.5,-312 245.5,-318 239.5,-324 233.5,-324"/>
<text text-anchor="middle" x="218.5" y="-303.5" font-family="sans" font-size="10.00">filtering</text>
</g>
<!-- 14 -->
<g id="node15" class="node"><title>14</title>
<path fill="none" stroke="#d8cb56" stroke-width="2" stroke-dasharray="5,2" d="M203,-252C203,-252 156,-252 156,-252 150,-252 144,-246 144,-240 144,-240 144,-228 144,-228 144,-222 150,-216 156,-216 156,-216 203,-216 203,-216 209,-216 215,-222 215,-228 215,-228 215,-240 215,-240 215,-246 209,-252 203,-252"/>
<text text-anchor="middle" x="179.5" y="-231.5" font-family="sans" font-size="10.00">write_fasta</text>
</g>
<!-- 6&#45;&gt;14 -->
<g id="edge14" class="edge"><title>6&#45;&gt;14</title>
<path fill="none" stroke="grey" stroke-width="2" d="M208.86,-287.697C204.373,-279.644 198.941,-269.894 193.976,-260.982"/>
<polygon fill="grey" stroke="grey" stroke-width="2" points="196.954,-259.137 189.03,-252.104 190.839,-262.544 196.954,-259.137"/>
</g>
<!-- 22 -->
<g id="node23" class="node"><title>22</title>
<path fill="none" stroke="#56d8a9" stroke-width="2" stroke-dasharray="5,2" d="M301.5,-252C301.5,-252 245.5,-252 245.5,-252 239.5,-252 233.5,-246 233.5,-240 233.5,-240 233.5,-228 233.5,-228 233.5,-222 239.5,-216 245.5,-216 245.5,-216 301.5,-216 301.5,-216 307.5,-216 313.5,-222 313.5,-228 313.5,-228 313.5,-240 313.5,-240 313.5,-246 307.5,-252 301.5,-252"/>
<text text-anchor="middle" x="273.5" y="-231.5" font-family="sans" font-size="10.00">ampliconduo</text>
</g>
<!-- 6&#45;&gt;22 -->
<g id="edge24" class="edge"><title>6&#45;&gt;22</title>
<path fill="none" stroke="grey" stroke-width="2" d="M232.096,-287.697C238.623,-279.389 246.568,-269.277 253.747,-260.141"/>
<polygon fill="grey" stroke="grey" stroke-width="2" points="256.635,-262.13 260.061,-252.104 251.131,-257.805 256.635,-262.13"/>
</g>
<!-- 7 -->
<g id="node8" class="node"><title>7</title>
<path fill="none" stroke="#56d873" stroke-width="2" stroke-dasharray="5,2" d="M280,-396C280,-396 211,-396 211,-396 205,-396 199,-390 199,-384 199,-384 199,-372 199,-372 199,-366 205,-360 211,-360 211,-360 280,-360 280,-360 286,-360 292,-366 292,-372 292,-372 292,-384 292,-384 292,-390 286,-396 280,-396"/>
<text text-anchor="middle" x="245.5" y="-375.5" font-family="sans" font-size="10.00">unfiltered_table</text>
</g>
<!-- 7&#45;&gt;6 -->
<g id="edge7" class="edge"><title>7&#45;&gt;6</title>
<path fill="none" stroke="grey" stroke-width="2" d="M238.826,-359.697C235.785,-351.813 232.117,-342.304 228.739,-333.546"/>
<polygon fill="grey" stroke="grey" stroke-width="2" points="231.962,-332.175 225.097,-324.104 225.431,-334.694 231.962,-332.175"/>
</g>
<!-- 7&#45;&gt;22 -->
<g id="edge25" class="edge"><title>7&#45;&gt;22</title>
<path fill="none" stroke="grey" stroke-width="2" d="M248.877,-359.871C253.671,-335.564 262.493,-290.819 268.173,-262.013"/>
<polygon fill="grey" stroke="grey" stroke-width="2" points="271.61,-262.677 270.111,-252.189 264.742,-261.323 271.61,-262.677"/>
</g>
<!-- 8 -->
<g id="node9" class="node"><title>8</title>
<path fill="none" stroke="#5692d8" stroke-width="2" stroke-dasharray="5,2" d="M326,-684C326,-684 265,-684 265,-684 259,-684 253,-678 253,-672 253,-672 253,-660 253,-660 253,-654 259,-648 265,-648 265,-648 326,-648 326,-648 332,-648 338,-654 338,-660 338,-660 338,-672 338,-672 338,-678 332,-684 326,-684"/>
<text text-anchor="middle" x="295.5" y="-663.5" font-family="sans" font-size="10.00">copy_to_fasta</text>
</g>
<!-- 18 -->
<g id="node19" class="node"><title>18</title>
<path fill="none" stroke="#56d8c9" stroke-width="2" stroke-dasharray="5,2" d="M310.5,-612C310.5,-612 280.5,-612 280.5,-612 274.5,-612 268.5,-606 268.5,-600 268.5,-600 268.5,-588 268.5,-588 268.5,-582 274.5,-576 280.5,-576 280.5,-576 310.5,-576 310.5,-576 316.5,-576 322.5,-582 322.5,-588 322.5,-588 322.5,-600 322.5,-600 322.5,-606 316.5,-612 310.5,-612"/>
<text text-anchor="middle" x="295.5" y="-591.5" font-family="sans" font-size="10.00">cdhit</text>
</g>
<!-- 8&#45;&gt;18 -->
<g id="edge18" class="edge"><title>8&#45;&gt;18</title>
<path fill="none" stroke="grey" stroke-width="2" d="M295.5,-647.697C295.5,-639.983 295.5,-630.712 295.5,-622.112"/>
<polygon fill="grey" stroke="grey" stroke-width="2" points="299,-622.104 295.5,-612.104 292,-622.104 299,-622.104"/>
</g>
<!-- 9 -->
<g id="node10" class="node"><title>9</title>
<path fill="none" stroke="#5692d8" stroke-width="2" stroke-dasharray="5,2" d="M219,-684C219,-684 158,-684 158,-684 152,-684 146,-678 146,-672 146,-672 146,-660 146,-660 146,-654 152,-648 158,-648 158,-648 219,-648 219,-648 225,-648 231,-654 231,-660 231,-660 231,-672 231,-672 231,-678 225,-684 219,-684"/>
<text text-anchor="middle" x="188.5" y="-663.5" font-family="sans" font-size="10.00">copy_to_fasta</text>
</g>
<!-- 13 -->
<g id="node14" class="node"><title>13</title>
<path fill="none" stroke="#56d8c9" stroke-width="2" stroke-dasharray="5,2" d="M203.5,-612C203.5,-612 173.5,-612 173.5,-612 167.5,-612 161.5,-606 161.5,-600 161.5,-600 161.5,-588 161.5,-588 161.5,-582 167.5,-576 173.5,-576 173.5,-576 203.5,-576 203.5,-576 209.5,-576 215.5,-582 215.5,-588 215.5,-588 215.5,-600 215.5,-600 215.5,-606 209.5,-612 203.5,-612"/>
<text text-anchor="middle" x="188.5" y="-591.5" font-family="sans" font-size="10.00">cdhit</text>
</g>
<!-- 9&#45;&gt;13 -->
<g id="edge13" class="edge"><title>9&#45;&gt;13</title>
<path fill="none" stroke="grey" stroke-width="2" d="M188.5,-647.697C188.5,-639.983 188.5,-630.712 188.5,-622.112"/>
<polygon fill="grey" stroke="grey" stroke-width="2" points="192,-622.104 188.5,-612.104 185,-622.104 192,-622.104"/>
</g>
<!-- 10 -->
<g id="node11" class="node"><title>10</title>
<path fill="none" stroke="#56c9d8" stroke-width="2" stroke-dasharray="5,2" d="M272.5,-828C272.5,-828 212.5,-828 212.5,-828 206.5,-828 200.5,-822 200.5,-816 200.5,-816 200.5,-804 200.5,-804 200.5,-798 206.5,-792 212.5,-792 212.5,-792 272.5,-792 272.5,-792 278.5,-792 284.5,-798 284.5,-804 284.5,-804 284.5,-816 284.5,-816 284.5,-822 278.5,-828 272.5,-828"/>
<text text-anchor="middle" x="242.5" y="-807.5" font-family="sans" font-size="10.00">define_primer</text>
</g>
<!-- 10&#45;&gt;21 -->
<g id="edge22" class="edge"><title>10&#45;&gt;21</title>
<path fill="none" stroke="grey" stroke-width="2" d="M255.601,-791.697C261.891,-783.389 269.547,-773.277 276.465,-764.141"/>
<polygon fill="grey" stroke="grey" stroke-width="2" points="279.304,-766.19 282.55,-756.104 273.723,-761.964 279.304,-766.19"/>
</g>
<!-- 10&#45;&gt;23 -->
<g id="edge26" class="edge"><title>10&#45;&gt;23</title>
<path fill="none" stroke="grey" stroke-width="2" d="M229.152,-791.697C222.743,-783.389 214.942,-773.277 207.894,-764.141"/>
<polygon fill="grey" stroke="grey" stroke-width="2" points="210.574,-761.884 201.695,-756.104 205.032,-766.16 210.574,-761.884"/>
</g>
<!-- 11&#45;&gt;7 -->
<g id="edge8" class="edge"><title>11&#45;&gt;7</title>
<path fill="none" stroke="grey" stroke-width="2" d="M276.365,-431.697C271.648,-423.644 265.938,-413.894 260.718,-404.982"/>
<polygon fill="grey" stroke="grey" stroke-width="2" points="263.592,-402.964 255.518,-396.104 257.552,-406.502 263.592,-402.964"/>
</g>
<!-- 12 -->
<g id="node13" class="node"><title>12</title>
<path fill="none" stroke="#d85656" stroke-width="2" stroke-dasharray="5,2" d="M473,-916C473,-916 396,-916 396,-916 390,-916 384,-910 384,-904 384,-904 384,-876 384,-876 384,-870 390,-864 396,-864 396,-864 473,-864 473,-864 479,-864 485,-870 485,-876 485,-876 485,-904 485,-904 485,-910 479,-916 473,-916"/>
<text text-anchor="middle" x="434.5" y="-904" font-family="sans" font-size="10.00">unzip</text>
<text text-anchor="middle" x="434.5" y="-893" font-family="sans" font-size="10.00">read: 2</text>
<text text-anchor="middle" x="434.5" y="-882" font-family="sans" font-size="10.00">sample: S2016BY</text>
<text text-anchor="middle" x="434.5" y="-871" font-family="sans" font-size="10.00">unit: B</text>
</g>
<!-- 12&#45;&gt;0 -->
<g id="edge1" class="edge"><title>12&#45;&gt;0</title>
<path fill="none" stroke="grey" stroke-width="2" d="M400.699,-863.891C387.937,-854.411 373.48,-843.671 360.942,-834.357"/>
<polygon fill="grey" stroke="grey" stroke-width="2" points="362.728,-831.324 352.614,-828.17 358.554,-836.943 362.728,-831.324"/>
</g>
<!-- 13&#45;&gt;1 -->
<g id="edge3" class="edge"><title>13&#45;&gt;1</title>
<path fill="none" stroke="grey" stroke-width="2" d="M188.5,-575.697C188.5,-567.983 188.5,-558.712 188.5,-550.112"/>
<polygon fill="grey" stroke="grey" stroke-width="2" points="192,-550.104 188.5,-540.104 185,-550.104 192,-550.104"/>
</g>
<!-- 15 -->
<g id="node16" class="node"><title>15</title>
<path fill="none" stroke="#c6d856" stroke-width="2" stroke-dasharray="5,2" d="M194.5,-180C194.5,-180 164.5,-180 164.5,-180 158.5,-180 152.5,-174 152.5,-168 152.5,-168 152.5,-156 152.5,-156 152.5,-150 158.5,-144 164.5,-144 164.5,-144 194.5,-144 194.5,-144 200.5,-144 206.5,-150 206.5,-156 206.5,-156 206.5,-168 206.5,-168 206.5,-174 200.5,-180 194.5,-180"/>
<text text-anchor="middle" x="179.5" y="-159.5" font-family="sans" font-size="10.00">swarm</text>
</g>
<!-- 14&#45;&gt;15 -->
<g id="edge15" class="edge"><title>14&#45;&gt;15</title>
<path fill="none" stroke="grey" stroke-width="2" d="M179.5,-215.697C179.5,-207.983 179.5,-198.712 179.5,-190.112"/>
<polygon fill="grey" stroke="grey" stroke-width="2" points="183,-190.104 179.5,-180.104 176,-190.104 183,-190.104"/>
</g>
<!-- 17 -->
<g id="node18" class="node"><title>17</title>
<path fill="none" stroke="#56a9d8" stroke-width="2" d="M194.5,-108C194.5,-108 164.5,-108 164.5,-108 158.5,-108 152.5,-102 152.5,-96 152.5,-96 152.5,-84 152.5,-84 152.5,-78 158.5,-72 164.5,-72 164.5,-72 194.5,-72 194.5,-72 200.5,-72 206.5,-78 206.5,-84 206.5,-84 206.5,-96 206.5,-96 206.5,-102 200.5,-108 194.5,-108"/>
<text text-anchor="middle" x="179.5" y="-87.5" font-family="sans" font-size="10.00">blast</text>
</g>
<!-- 15&#45;&gt;17 -->
<g id="edge17" class="edge"><title>15&#45;&gt;17</title>
<path fill="none" stroke="grey" stroke-width="2" d="M179.5,-143.697C179.5,-135.983 179.5,-126.712 179.5,-118.112"/>
<polygon fill="grey" stroke="grey" stroke-width="2" points="183,-118.104 179.5,-108.104 176,-118.104 183,-118.104"/>
</g>
<!-- 20 -->
<g id="node21" class="node"><title>20</title>
<path fill="none" stroke="#8fd856" stroke-width="2" d="M249.5,-36C249.5,-36 219.5,-36 219.5,-36 213.5,-36 207.5,-30 207.5,-24 207.5,-24 207.5,-12 207.5,-12 207.5,-6 213.5,-0 219.5,-0 219.5,-0 249.5,-0 249.5,-0 255.5,-0 261.5,-6 261.5,-12 261.5,-12 261.5,-24 261.5,-24 261.5,-30 255.5,-36 249.5,-36"/>
<text text-anchor="middle" x="234.5" y="-15.5" font-family="sans" font-size="10.00">all</text>
</g>
<!-- 15&#45;&gt;20 -->
<g id="edge19" class="edge"><title>15&#45;&gt;20</title>
<path fill="none" stroke="grey" stroke-width="2" d="M193.665,-143.851C201.19,-133.93 209.997,-120.89 215.5,-108 223.913,-88.2932 228.745,-64.4881 231.428,-46.4579"/>
<polygon fill="grey" stroke="grey" stroke-width="2" points="234.927,-46.7052 232.803,-36.3255 227.99,-45.7643 234.927,-46.7052"/>
</g>
<!-- 16&#45;&gt;7 -->
<g id="edge9" class="edge"><title>16&#45;&gt;7</title>
<path fill="none" stroke="grey" stroke-width="2" d="M215.388,-431.697C219.989,-423.644 225.56,-413.894 230.653,-404.982"/>
<polygon fill="grey" stroke="grey" stroke-width="2" points="233.804,-406.523 235.726,-396.104 227.726,-403.05 233.804,-406.523"/>
</g>
<!-- 17&#45;&gt;20 -->
<g id="edge20" class="edge"><title>17&#45;&gt;20</title>
<path fill="none" stroke="grey" stroke-width="2" d="M193.096,-71.6966C199.623,-63.3893 207.568,-53.2771 214.747,-44.1407"/>
<polygon fill="grey" stroke="grey" stroke-width="2" points="217.635,-46.1299 221.061,-36.1043 212.131,-41.8051 217.635,-46.1299"/>
</g>
<!-- 18&#45;&gt;4 -->
<g id="edge4" class="edge"><title>18&#45;&gt;4</title>
<path fill="none" stroke="grey" stroke-width="2" d="M295.5,-575.697C295.5,-567.983 295.5,-558.712 295.5,-550.112"/>
<polygon fill="grey" stroke="grey" stroke-width="2" points="299,-550.104 295.5,-540.104 292,-550.104 299,-550.104"/>
</g>
<!-- 19 -->
<g id="node20" class="node"><title>19</title>
<path fill="none" stroke="#d85656" stroke-width="2" stroke-dasharray="5,2" d="M208,-916C208,-916 131,-916 131,-916 125,-916 119,-910 119,-904 119,-904 119,-876 119,-876 119,-870 125,-864 131,-864 131,-864 208,-864 208,-864 214,-864 220,-870 220,-876 220,-876 220,-904 220,-904 220,-910 214,-916 208,-916"/>
<text text-anchor="middle" x="169.5" y="-904" font-family="sans" font-size="10.00">unzip</text>
<text text-anchor="middle" x="169.5" y="-893" font-family="sans" font-size="10.00">read: 2</text>
<text text-anchor="middle" x="169.5" y="-882" font-family="sans" font-size="10.00">sample: S2016BY</text>
<text text-anchor="middle" x="169.5" y="-871" font-family="sans" font-size="10.00">unit: A</text>
</g>
<!-- 19&#45;&gt;5 -->
<g id="edge6" class="edge"><title>19&#45;&gt;5</title>
<path fill="none" stroke="grey" stroke-width="2" d="M164.993,-863.891C163.532,-855.749 161.904,-846.679 160.414,-838.381"/>
<polygon fill="grey" stroke="grey" stroke-width="2" points="163.837,-837.635 158.625,-828.411 156.947,-838.872 163.837,-837.635"/>
</g>
<!-- 21&#45;&gt;8 -->
<g id="edge10" class="edge"><title>21&#45;&gt;8</title>
<path fill="none" stroke="grey" stroke-width="2" d="M295.5,-719.697C295.5,-711.983 295.5,-702.712 295.5,-694.112"/>
<polygon fill="grey" stroke="grey" stroke-width="2" points="299,-694.104 295.5,-684.104 292,-694.104 299,-694.104"/>
</g>
<!-- 22&#45;&gt;20 -->
<g id="edge21" class="edge"><title>22&#45;&gt;20</title>
<path fill="none" stroke="grey" stroke-width="2" d="M270.374,-215.849C263.614,-178.753 247.587,-90.8101 239.439,-46.1027"/>
<polygon fill="grey" stroke="grey" stroke-width="2" points="242.877,-45.4429 237.64,-36.2325 235.99,-46.698 242.877,-45.4429"/>
</g>
<!-- 23&#45;&gt;9 -->
<g id="edge11" class="edge"><title>23&#45;&gt;9</title>
<path fill="none" stroke="grey" stroke-width="2" d="M188.5,-719.697C188.5,-711.983 188.5,-702.712 188.5,-694.112"/>
<polygon fill="grey" stroke="grey" stroke-width="2" points="192,-694.104 188.5,-684.104 185,-694.104 192,-694.104"/>
</g>
</g>
</svg>
