<?xml version="1.0" encoding="UTF-8"?><svg xmlns="http://www.w3.org/2000/svg" xmlns:xlink="http://www.w3.org/1999/xlink" fill-opacity="1" color-rendering="auto" color-interpolation="auto" text-rendering="auto" stroke="black" stroke-linecap="square" width="2484" stroke-miterlimit="10" shape-rendering="auto" stroke-opacity="1" fill="black" stroke-dasharray="none" font-weight="normal" stroke-width="1" height="826" font-family="'Dialog'" font-style="normal" stroke-linejoin="miter" font-size="12px" stroke-dashoffset="0" image-rendering="auto">
  <!--Generated by ySVG 2.5-->
  <defs id="genericDefs"/>
  <g>
    <defs id="defs1">
      <clipPath clipPathUnits="userSpaceOnUse" id="clipPath1">
        <path d="M0 0 L2484 0 L2484 826 L0 826 L0 0 Z"/>
      </clipPath>
      <clipPath clipPathUnits="userSpaceOnUse" id="clipPath2">
        <path d="M-290 218 L2194 218 L2194 1044 L-290 1044 L-290 218 Z"/>
      </clipPath>
    </defs>
    <g transform="matrix(1,0,0,1,290,-218)" fill-opacity="0.6627" fill="rgb(167,214,160)" text-rendering="geometricPrecision" shape-rendering="geometricPrecision" stroke="rgb(167,214,160)" stroke-opacity="0.6627">
      <rect x="535" y="233" clip-path="url(#clipPath2)" width="243" rx="4" ry="4" height="52" stroke="none"/>
    </g>
    <g text-rendering="geometricPrecision" stroke-miterlimit="1.45" shape-rendering="geometricPrecision" transform="matrix(1,0,0,1,290,-218)" stroke-linecap="butt">
      <rect x="535" y="233" clip-path="url(#clipPath2)" fill="none" width="243" rx="4" ry="4" height="52"/>
      <text x="544.4834" font-size="30px" y="269.3857" clip-path="url(#clipPath2)" font-family="sans-serif" stroke="none" xml:space="preserve">Natter-Pipeline</text>
    </g>
    <g transform="matrix(1,0,0,1,290,-218)" fill-opacity="0.6627" fill="rgb(167,214,160)" text-rendering="geometricPrecision" shape-rendering="geometricPrecision" stroke="rgb(167,214,160)" stroke-opacity="0.6627">
      <rect x="155" y="289.1553" clip-path="url(#clipPath2)" width="243" rx="4" ry="4" height="52" stroke="none"/>
    </g>
    <g text-rendering="geometricPrecision" stroke-miterlimit="1.45" shape-rendering="geometricPrecision" transform="matrix(1,0,0,1,290,-218)" stroke-linecap="butt">
      <rect x="155" y="289.1553" clip-path="url(#clipPath2)" fill="none" width="243" rx="4" ry="4" height="52"/>
      <text x="168.8706" font-size="30px" y="325.541" clip-path="url(#clipPath2)" font-family="sans-serif" stroke="none" xml:space="preserve">demultiplexed</text>
    </g>
    <g transform="matrix(1,0,0,1,290,-218)" fill-opacity="0.6627" fill="rgb(167,148,206)" text-rendering="geometricPrecision" shape-rendering="geometricPrecision" stroke="rgb(167,148,206)" stroke-opacity="0.6627">
      <rect x="-274.7368" width="379.2328" height="40" y="295.1553" clip-path="url(#clipPath2)" stroke="none"/>
    </g>
    <g text-rendering="geometricPrecision" stroke-miterlimit="1.45" shape-rendering="geometricPrecision" transform="matrix(1,0,0,1,290,-218)" stroke-linecap="butt">
      <rect fill="none" x="-274.7368" width="379.2328" height="40" y="295.1553" clip-path="url(#clipPath2)"/>
      <text x="-162.7351" font-size="30px" y="325.541" clip-path="url(#clipPath2)" font-family="sans-serif" stroke="none" xml:space="preserve">Input Files</text>
    </g>
    <g transform="matrix(1,0,0,1,290,-218)" fill-opacity="0.6627" fill="rgb(167,214,160)" text-rendering="geometricPrecision" shape-rendering="geometricPrecision" stroke="rgb(167,214,160)" stroke-opacity="0.6627">
      <rect x="535" y="331" clip-path="url(#clipPath2)" width="243" rx="4" ry="4" height="52" stroke="none"/>
    </g>
    <g text-rendering="geometricPrecision" stroke-miterlimit="1.45" shape-rendering="geometricPrecision" transform="matrix(1,0,0,1,290,-218)" stroke-linecap="butt">
      <rect x="535" y="331" clip-path="url(#clipPath2)" fill="none" width="243" rx="4" ry="4" height="52"/>
      <text x="605.9189" font-size="30px" y="367.3857" clip-path="url(#clipPath2)" font-family="sans-serif" stroke="none" xml:space="preserve">results</text>
    </g>
    <g transform="matrix(1,0,0,1,290,-218)" fill-opacity="0.6627" fill="rgb(167,214,160)" text-rendering="geometricPrecision" shape-rendering="geometricPrecision" stroke="rgb(167,214,160)" stroke-opacity="0.6627">
      <rect x="-65.2812" y="413" clip-path="url(#clipPath2)" width="243" rx="4" ry="4" height="52" stroke="none"/>
    </g>
    <g text-rendering="geometricPrecision" stroke-miterlimit="1.45" shape-rendering="geometricPrecision" transform="matrix(1,0,0,1,290,-218)" stroke-linecap="butt">
      <rect x="-65.2812" y="413" clip-path="url(#clipPath2)" fill="none" width="243" rx="4" ry="4" height="52"/>
      <text x="38.4502" font-size="30px" y="449.3857" clip-path="url(#clipPath2)" font-family="sans-serif" stroke="none" xml:space="preserve">qc</text>
    </g>
    <g transform="matrix(1,0,0,1,290,-218)" fill-opacity="0.6627" fill="rgb(167,214,160)" text-rendering="geometricPrecision" shape-rendering="geometricPrecision" stroke="rgb(167,214,160)" stroke-opacity="0.6627">
      <rect x="296.8594" y="413" clip-path="url(#clipPath2)" width="243" rx="4" ry="4" height="52" stroke="none"/>
    </g>
    <g text-rendering="geometricPrecision" stroke-miterlimit="1.45" shape-rendering="geometricPrecision" transform="matrix(1,0,0,1,290,-218)" stroke-linecap="butt">
      <rect x="296.8594" y="413" clip-path="url(#clipPath2)" fill="none" width="243" rx="4" ry="4" height="52"/>
      <text x="387.6782" font-size="30px" y="449.3857" clip-path="url(#clipPath2)" font-family="sans-serif" stroke="none" xml:space="preserve">logs</text>
    </g>
    <g transform="matrix(1,0,0,1,290,-218)" fill-opacity="0.6627" fill="rgb(167,214,160)" text-rendering="geometricPrecision" shape-rendering="geometricPrecision" stroke="rgb(167,214,160)" stroke-opacity="0.6627">
      <rect x="1107.2594" y="413" clip-path="url(#clipPath2)" width="243" rx="4" ry="4" height="52" stroke="none"/>
    </g>
    <g text-rendering="geometricPrecision" stroke-miterlimit="1.45" shape-rendering="geometricPrecision" transform="matrix(1,0,0,1,290,-218)" stroke-linecap="butt">
      <rect x="1107.2594" y="413" clip-path="url(#clipPath2)" fill="none" width="243" rx="4" ry="4" height="52"/>
      <text x="1160.6295" font-size="30px" y="449.3857" clip-path="url(#clipPath2)" font-family="sans-serif" stroke="none" xml:space="preserve">finalData</text>
    </g>
    <g transform="matrix(1,0,0,1,290,-218)" fill-opacity="0.6627" fill="rgb(167,214,160)" text-rendering="geometricPrecision" shape-rendering="geometricPrecision" stroke="rgb(167,214,160)" stroke-opacity="0.6627">
      <rect x="659" y="413" clip-path="url(#clipPath2)" width="243" rx="4" ry="4" height="52" stroke="none"/>
    </g>
    <g text-rendering="geometricPrecision" stroke-miterlimit="1.45" shape-rendering="geometricPrecision" transform="matrix(1,0,0,1,290,-218)" stroke-linecap="butt">
      <rect x="659" y="413" clip-path="url(#clipPath2)" fill="none" width="243" rx="4" ry="4" height="52"/>
      <text x="709.272" font-size="30px" y="449.3857" clip-path="url(#clipPath2)" font-family="sans-serif" stroke="none" xml:space="preserve">assembly</text>
    </g>
    <g transform="matrix(1,0,0,1,290,-218)" fill-opacity="0.6627" fill="rgb(167,148,206)" text-rendering="geometricPrecision" shape-rendering="geometricPrecision" stroke="rgb(167,148,206)" stroke-opacity="0.6627">
      <rect x="228.743" width="379.2328" height="40" y="512" clip-path="url(#clipPath2)" stroke="none"/>
    </g>
    <g text-rendering="geometricPrecision" stroke-miterlimit="1.45" shape-rendering="geometricPrecision" transform="matrix(1,0,0,1,290,-218)" stroke-linecap="butt">
      <rect fill="none" x="228.743" width="379.2328" height="40" y="512" clip-path="url(#clipPath2)"/>
      <text x="360.6445" font-size="30px" y="542.3857" clip-path="url(#clipPath2)" font-family="sans-serif" stroke="none" xml:space="preserve">Logfiles</text>
    </g>
    <g transform="matrix(1,0,0,1,290,-218)" fill-opacity="0.6627" fill="rgb(167,214,160)" text-rendering="geometricPrecision" shape-rendering="geometricPrecision" stroke="rgb(167,214,160)" stroke-opacity="0.6627">
      <rect x="659" y="506" clip-path="url(#clipPath2)" width="243" rx="4" ry="4" height="52" stroke="none"/>
    </g>
    <g text-rendering="geometricPrecision" stroke-miterlimit="1.45" shape-rendering="geometricPrecision" transform="matrix(1,0,0,1,290,-218)" stroke-linecap="butt">
      <rect x="659" y="506" clip-path="url(#clipPath2)" fill="none" width="243" rx="4" ry="4" height="52"/>
      <text x="669.8384" font-size="30px" y="542.3857" clip-path="url(#clipPath2)" font-family="sans-serif" font-style="italic" stroke="none" xml:space="preserve">sample folders</text>
    </g>
    <g transform="matrix(1,0,0,1,290,-218)" fill-opacity="0.3765" fill="rgb(192,192,192)" text-rendering="geometricPrecision" shape-rendering="geometricPrecision" stroke="rgb(192,192,192)" stroke-opacity="0.3765">
      <rect x="564.7662" width="431.4676" height="374.5447" y="605.4609" clip-path="url(#clipPath2)" stroke="none"/>
      <rect x="564.7662" y="605.4609" clip-path="url(#clipPath2)" fill="rgb(255,255,255)" width="1" height="374.5447" stroke="none"/>
      <rect x="565.7662" y="605.4609" clip-path="url(#clipPath2)" fill="rgb(255,255,255)" width="429.4676" height="1" stroke="none"/>
      <rect x="565.7662" y="979.0057" clip-path="url(#clipPath2)" fill="rgb(134,134,134)" width="430.4676" height="1" stroke="none"/>
      <rect x="995.2338" y="605.4609" clip-path="url(#clipPath2)" fill="rgb(134,134,134)" width="1" height="373.5447" stroke="none"/>
    </g>
    <g transform="matrix(1,0,0,1,290,-218)" fill-opacity="0.6627" fill="rgb(167,148,206)" text-rendering="geometricPrecision" shape-rendering="geometricPrecision" stroke="rgb(167,148,206)" stroke-opacity="0.6627">
      <rect x="589.6342" width="379.2328" height="40" y="682.2734" clip-path="url(#clipPath2)" stroke="none"/>
    </g>
    <g text-rendering="geometricPrecision" stroke-miterlimit="1.45" shape-rendering="geometricPrecision" transform="matrix(1,0,0,1,290,-218)" stroke-linecap="butt">
      <rect fill="none" x="589.6342" width="379.2328" height="40" y="682.2734" clip-path="url(#clipPath2)"/>
      <text x="651.7139" font-size="30px" y="712.6592" clip-path="url(#clipPath2)" font-family="sans-serif" stroke="none" xml:space="preserve">sample_low_qual</text>
    </g>
    <g transform="matrix(1,0,0,1,290,-218)" fill-opacity="0.6627" fill="rgb(167,148,206)" text-rendering="geometricPrecision" shape-rendering="geometricPrecision" stroke="rgb(167,148,206)" stroke-opacity="0.6627">
      <rect x="589.6342" width="379.2328" height="40" y="796.2984" clip-path="url(#clipPath2)" stroke="none"/>
    </g>
    <g text-rendering="geometricPrecision" stroke-miterlimit="1.45" shape-rendering="geometricPrecision" transform="matrix(1,0,0,1,290,-218)" stroke-linecap="butt">
      <rect fill="none" x="589.6342" width="379.2328" height="40" y="796.2984" clip-path="url(#clipPath2)"/>
      <text x="636.1133" font-size="30px" y="826.6842" clip-path="url(#clipPath2)" font-family="sans-serif" stroke="none" xml:space="preserve">sample_assembled</text>
    </g>
    <g transform="matrix(1,0,0,1,290,-218)" fill-opacity="0.6627" fill="rgb(167,148,206)" text-rendering="geometricPrecision" shape-rendering="geometricPrecision" stroke="rgb(167,148,206)" stroke-opacity="0.6627">
      <rect x="589.6342" width="379.2328" height="40" y="854.1109" clip-path="url(#clipPath2)" stroke="none"/>
    </g>
    <g text-rendering="geometricPrecision" stroke-miterlimit="1.45" shape-rendering="geometricPrecision" transform="matrix(1,0,0,1,290,-218)" stroke-linecap="butt">
      <rect fill="none" x="589.6342" width="379.2328" height="40" y="854.1109" clip-path="url(#clipPath2)"/>
      <text x="640.4273" font-size="30px" y="884.4967" clip-path="url(#clipPath2)" font-family="sans-serif" stroke="none" xml:space="preserve">sample_singletons</text>
    </g>
    <g transform="matrix(1,0,0,1,290,-218)" fill-opacity="0.6627" fill="rgb(167,148,206)" text-rendering="geometricPrecision" shape-rendering="geometricPrecision" stroke="rgb(167,148,206)" stroke-opacity="0.6627">
      <rect x="589.6342" width="379.2328" height="40" y="911.9234" clip-path="url(#clipPath2)" stroke="none"/>
    </g>
    <g text-rendering="geometricPrecision" stroke-miterlimit="1.45" shape-rendering="geometricPrecision" transform="matrix(1,0,0,1,290,-218)" stroke-linecap="butt">
      <rect fill="none" x="589.6342" width="379.2328" height="40" y="911.9234" clip-path="url(#clipPath2)"/>
      <text x="623.1422" font-size="30px" y="942.3092" clip-path="url(#clipPath2)" font-family="sans-serif" stroke="none" xml:space="preserve">sample_dereplicated</text>
    </g>
    <g transform="matrix(1,0,0,1,290,-218)" fill-opacity="0.6627" fill="rgb(167,148,206)" text-rendering="geometricPrecision" shape-rendering="geometricPrecision" stroke="rgb(167,148,206)" stroke-opacity="0.6627">
      <rect x="589.6342" width="379.2328" height="40" y="740.0859" clip-path="url(#clipPath2)" stroke="none"/>
    </g>
    <g text-rendering="geometricPrecision" stroke-miterlimit="1.45" shape-rendering="geometricPrecision" transform="matrix(1,0,0,1,290,-218)" stroke-linecap="butt">
      <rect fill="none" x="589.6342" width="379.2328" height="40" y="740.0859" clip-path="url(#clipPath2)"/>
      <text x="656.0938" font-size="30px" y="770.4717" clip-path="url(#clipPath2)" font-family="sans-serif" stroke="none" xml:space="preserve">sample_chimera</text>
    </g>
    <g transform="matrix(1,0,0,1,290,-218)" fill-opacity="0.6627" fill="rgb(167,148,206)" text-rendering="geometricPrecision" shape-rendering="geometricPrecision" stroke="rgb(167,148,206)" stroke-opacity="0.6627">
      <rect x="589.6342" width="379.2328" height="40" y="624.4609" clip-path="url(#clipPath2)" stroke="none"/>
    </g>
    <g text-rendering="geometricPrecision" stroke-miterlimit="1.45" shape-rendering="geometricPrecision" transform="matrix(1,0,0,1,290,-218)" stroke-linecap="butt">
      <rect fill="none" x="589.6342" width="379.2328" height="40" y="624.4609" clip-path="url(#clipPath2)"/>
      <text x="682.5855" font-size="30px" y="654.8467" clip-path="url(#clipPath2)" font-family="sans-serif" stroke="none" xml:space="preserve">sample.fasta</text>
    </g>
    <g transform="matrix(1,0,0,1,290,-218)" fill-opacity="0.3765" fill="rgb(192,192,192)" text-rendering="geometricPrecision" shape-rendering="geometricPrecision" stroke="rgb(192,192,192)" stroke-opacity="0.3765">
      <rect x="-151.4" width="415.2375" height="130.4609" y="605.4609" clip-path="url(#clipPath2)" stroke="none"/>
      <rect x="-151.4" y="605.4609" clip-path="url(#clipPath2)" fill="rgb(255,255,255)" width="1" height="130.4609" stroke="none"/>
      <rect x="-150.4" y="605.4609" clip-path="url(#clipPath2)" fill="rgb(255,255,255)" width="413.2375" height="1" stroke="none"/>
      <rect x="-150.4" y="734.9219" clip-path="url(#clipPath2)" fill="rgb(134,134,134)" width="414.2375" height="1" stroke="none"/>
      <rect x="262.8375" y="605.4609" clip-path="url(#clipPath2)" fill="rgb(134,134,134)" width="1" height="129.4609" stroke="none"/>
    </g>
    <g transform="matrix(1,0,0,1,290,-218)" fill-opacity="0.6627" fill="rgb(167,148,206)" text-rendering="geometricPrecision" shape-rendering="geometricPrecision" stroke="rgb(167,148,206)" stroke-opacity="0.6627">
      <rect x="-127.5863" width="379.2328" height="40" y="621.9219" clip-path="url(#clipPath2)" stroke="none"/>
    </g>
    <g text-rendering="geometricPrecision" stroke-miterlimit="1.45" shape-rendering="geometricPrecision" transform="matrix(1,0,0,1,290,-218)" stroke-linecap="butt">
      <rect fill="none" x="-127.5863" width="379.2328" height="40" y="621.9219" clip-path="url(#clipPath2)"/>
      <text x="-50.4919" font-size="30px" y="652.3076" clip-path="url(#clipPath2)" font-family="sans-serif" stroke="none" xml:space="preserve">FastQC reports</text>
    </g>
    <g transform="matrix(1,0,0,1,290,-218)" fill-opacity="0.6627" fill="rgb(167,148,206)" text-rendering="geometricPrecision" shape-rendering="geometricPrecision" stroke="rgb(167,148,206)" stroke-opacity="0.6627">
      <rect x="-127.5863" width="379.2328" height="40" y="680.9219" clip-path="url(#clipPath2)" stroke="none"/>
    </g>
    <g text-rendering="geometricPrecision" stroke-miterlimit="1.45" shape-rendering="geometricPrecision" transform="matrix(1,0,0,1,290,-218)" stroke-linecap="butt">
      <rect fill="none" x="-127.5863" width="379.2328" height="40" y="680.9219" clip-path="url(#clipPath2)"/>
      <text x="-47.8259" font-size="30px" y="711.3076" clip-path="url(#clipPath2)" font-family="sans-serif" stroke="none" xml:space="preserve">MultiQC report</text>
    </g>
    <g transform="matrix(1,0,0,1,290,-218)" fill-opacity="0.6627" fill="rgb(167,214,160)" text-rendering="geometricPrecision" shape-rendering="geometricPrecision" stroke="rgb(167,214,160)" stroke-opacity="0.6627">
      <rect x="1469.4" y="413" clip-path="url(#clipPath2)" width="243" rx="4" ry="4" height="52" stroke="none"/>
    </g>
    <g text-rendering="geometricPrecision" stroke-miterlimit="1.45" shape-rendering="geometricPrecision" transform="matrix(1,0,0,1,290,-218)" stroke-linecap="butt">
      <rect x="1469.4" y="413" clip-path="url(#clipPath2)" fill="none" width="243" rx="4" ry="4" height="52"/>
      <text x="1539.213" font-size="30px" y="449.3857" clip-path="url(#clipPath2)" font-family="sans-serif" stroke="none" xml:space="preserve">figures</text>
    </g>
    <g transform="matrix(1,0,0,1,290,-218)" fill-opacity="0.3765" fill="rgb(192,192,192)" text-rendering="geometricPrecision" shape-rendering="geometricPrecision" stroke="rgb(192,192,192)" stroke-opacity="0.3765">
      <rect x="1021.1406" width="415.2375" height="423.1575" y="605.4609" clip-path="url(#clipPath2)" stroke="none"/>
      <rect x="1021.1406" y="605.4609" clip-path="url(#clipPath2)" fill="rgb(255,255,255)" width="1" height="423.1575" stroke="none"/>
      <rect x="1022.1406" y="605.4609" clip-path="url(#clipPath2)" fill="rgb(255,255,255)" width="413.2375" height="1" stroke="none"/>
      <rect x="1022.1406" y="1027.6184" clip-path="url(#clipPath2)" fill="rgb(134,134,134)" width="414.2375" height="1" stroke="none"/>
      <rect x="1435.3781" y="605.4609" clip-path="url(#clipPath2)" fill="rgb(134,134,134)" width="1" height="422.1575" stroke="none"/>
    </g>
    <g transform="matrix(1,0,0,1,290,-218)" fill-opacity="0.6627" fill="rgb(167,148,206)" text-rendering="geometricPrecision" shape-rendering="geometricPrecision" stroke="rgb(167,148,206)" stroke-opacity="0.6627">
      <rect x="1042.9415" width="379.2328" height="40" y="682.2734" clip-path="url(#clipPath2)" stroke="none"/>
    </g>
    <g text-rendering="geometricPrecision" stroke-miterlimit="1.45" shape-rendering="geometricPrecision" transform="matrix(1,0,0,1,290,-218)" stroke-linecap="butt">
      <rect fill="none" x="1042.9415" width="379.2328" height="40" y="682.2734" clip-path="url(#clipPath2)"/>
      <text x="1114.4109" font-size="30px" y="712.6592" clip-path="url(#clipPath2)" font-family="sans-serif" stroke="none" xml:space="preserve">unfiltered_table</text>
    </g>
    <g transform="matrix(1,0,0,1,290,-218)" fill-opacity="0.6627" fill="rgb(167,148,206)" text-rendering="geometricPrecision" shape-rendering="geometricPrecision" stroke="rgb(167,148,206)" stroke-opacity="0.6627">
      <rect x="1042.9415" width="379.2328" height="40" y="797.8984" clip-path="url(#clipPath2)" stroke="none"/>
    </g>
    <g text-rendering="geometricPrecision" stroke-miterlimit="1.45" shape-rendering="geometricPrecision" transform="matrix(1,0,0,1,290,-218)" stroke-linecap="butt">
      <rect fill="none" x="1042.9415" width="379.2328" height="40" y="797.8984" clip-path="url(#clipPath2)"/>
      <text x="1081.2102" font-size="30px" y="828.2842" clip-path="url(#clipPath2)" font-family="sans-serif" stroke="none" xml:space="preserve">sample_nonchimera</text>
    </g>
    <g transform="matrix(1,0,0,1,290,-218)" fill-opacity="0.6627" fill="rgb(167,148,206)" text-rendering="geometricPrecision" shape-rendering="geometricPrecision" stroke="rgb(167,148,206)" stroke-opacity="0.6627">
      <rect x="1042.9415" width="379.2328" height="40" y="855.7109" clip-path="url(#clipPath2)" stroke="none"/>
    </g>
    <g text-rendering="geometricPrecision" stroke-miterlimit="1.45" shape-rendering="geometricPrecision" transform="matrix(1,0,0,1,290,-218)" stroke-linecap="butt">
      <rect fill="none" x="1042.9415" width="379.2328" height="40" y="855.7109" clip-path="url(#clipPath2)"/>
      <text x="1133.4246" font-size="30px" y="886.0967" clip-path="url(#clipPath2)" font-family="sans-serif" stroke="none" xml:space="preserve">filtered_table</text>
    </g>
    <g transform="matrix(1,0,0,1,290,-218)" fill-opacity="0.6627" fill="rgb(167,148,206)" text-rendering="geometricPrecision" shape-rendering="geometricPrecision" stroke="rgb(167,148,206)" stroke-opacity="0.6627">
      <rect x="1042.9415" width="379.2328" height="40" y="740.0859" clip-path="url(#clipPath2)" stroke="none"/>
    </g>
    <g text-rendering="geometricPrecision" stroke-miterlimit="1.45" shape-rendering="geometricPrecision" transform="matrix(1,0,0,1,290,-218)" stroke-linecap="butt">
      <rect fill="none" x="1042.9415" width="379.2328" height="40" y="740.0859" clip-path="url(#clipPath2)"/>
      <text x="1089.3474" font-size="30px" y="770.4717" clip-path="url(#clipPath2)" font-family="sans-serif" stroke="none" xml:space="preserve">filtered_blast_table</text>
    </g>
    <g transform="matrix(1,0,0,1,290,-218)" fill-opacity="0.6627" fill="rgb(167,148,206)" text-rendering="geometricPrecision" shape-rendering="geometricPrecision" stroke="rgb(167,148,206)" stroke-opacity="0.6627">
      <rect x="1042.9415" width="379.2328" height="40" y="971.3359" clip-path="url(#clipPath2)" stroke="none"/>
    </g>
    <g text-rendering="geometricPrecision" stroke-miterlimit="1.45" shape-rendering="geometricPrecision" transform="matrix(1,0,0,1,290,-218)" stroke-linecap="butt">
      <rect fill="none" x="1042.9415" width="379.2328" height="40" y="971.3359" clip-path="url(#clipPath2)"/>
      <text x="1136.7864" font-size="30px" y="1001.7217" clip-path="url(#clipPath2)" font-family="sans-serif" stroke="none" xml:space="preserve">filtered.fasta</text>
    </g>
    <g transform="matrix(1,0,0,1,290,-218)" fill-opacity="0.6627" fill="rgb(167,148,206)" text-rendering="geometricPrecision" shape-rendering="geometricPrecision" stroke="rgb(167,148,206)" stroke-opacity="0.6627">
      <rect x="1042.9415" width="379.2328" height="40" y="624.4609" clip-path="url(#clipPath2)" stroke="none"/>
    </g>
    <g text-rendering="geometricPrecision" stroke-miterlimit="1.45" shape-rendering="geometricPrecision" transform="matrix(1,0,0,1,290,-218)" stroke-linecap="butt">
      <rect fill="none" x="1042.9415" width="379.2328" height="40" y="624.4609" clip-path="url(#clipPath2)"/>
      <text x="1075.2043" font-size="30px" y="654.8467" clip-path="url(#clipPath2)" font-family="sans-serif" stroke="none" xml:space="preserve">OTU_representatives</text>
    </g>
    <g transform="matrix(1,0,0,1,290,-218)" fill-opacity="0.6627" fill="rgb(167,148,206)" text-rendering="geometricPrecision" shape-rendering="geometricPrecision" stroke="rgb(167,148,206)" stroke-opacity="0.6627">
      <rect x="1042.9415" width="379.2328" height="40" y="913.5234" clip-path="url(#clipPath2)" stroke="none"/>
    </g>
    <g text-rendering="geometricPrecision" stroke-miterlimit="1.45" shape-rendering="geometricPrecision" transform="matrix(1,0,0,1,290,-218)" stroke-linecap="butt">
      <rect fill="none" x="1042.9415" width="379.2328" height="40" y="913.5234" clip-path="url(#clipPath2)"/>
      <text x="1101.3591" font-size="30px" y="943.9092" clip-path="url(#clipPath2)" font-family="sans-serif" stroke="none" xml:space="preserve">filtered_out_table</text>
    </g>
    <g transform="matrix(1,0,0,1,290,-218)" fill-opacity="0.3765" fill="rgb(192,192,192)" text-rendering="geometricPrecision" shape-rendering="geometricPrecision" stroke="rgb(192,192,192)" stroke-opacity="0.3765">
      <rect x="1767.0252" width="411.1562" height="193.4105" y="342.2948" clip-path="url(#clipPath2)" stroke="none"/>
      <rect x="1767.0252" y="342.2948" clip-path="url(#clipPath2)" fill="rgb(255,255,255)" width="1" height="193.4105" stroke="none"/>
      <rect x="1768.0252" y="342.2948" clip-path="url(#clipPath2)" fill="rgb(255,255,255)" width="409.1562" height="1" stroke="none"/>
      <rect x="1768.0252" y="534.7052" clip-path="url(#clipPath2)" fill="rgb(134,134,134)" width="410.1562" height="1" stroke="none"/>
      <rect x="2177.1814" y="342.2948" clip-path="url(#clipPath2)" fill="rgb(134,134,134)" width="1" height="192.4105" stroke="none"/>
    </g>
    <g transform="matrix(1,0,0,1,290,-218)" fill-opacity="0.6627" fill="rgb(167,148,206)" text-rendering="geometricPrecision" shape-rendering="geometricPrecision" stroke="rgb(167,148,206)" stroke-opacity="0.6627">
      <rect x="1782.9869" width="379.2328" height="40" y="478.1058" clip-path="url(#clipPath2)" stroke="none"/>
    </g>
    <g text-rendering="geometricPrecision" stroke-miterlimit="1.45" shape-rendering="geometricPrecision" transform="matrix(1,0,0,1,290,-218)" stroke-linecap="butt">
      <rect fill="none" x="1782.9869" width="379.2328" height="40" y="478.1058" clip-path="url(#clipPath2)"/>
      <text x="1795.6501" font-size="30px" y="508.4915" clip-path="url(#clipPath2)" font-family="sans-serif" stroke="none" xml:space="preserve">ampliconduo_unfiltered</text>
    </g>
    <g transform="matrix(1,0,0,1,290,-218)" fill-opacity="0.6627" fill="rgb(167,148,206)" text-rendering="geometricPrecision" shape-rendering="geometricPrecision" stroke="rgb(167,148,206)" stroke-opacity="0.6627">
      <rect x="1782.9869" width="379.2328" height="40" y="361.2948" clip-path="url(#clipPath2)" stroke="none"/>
    </g>
    <g text-rendering="geometricPrecision" stroke-miterlimit="1.45" shape-rendering="geometricPrecision" transform="matrix(1,0,0,1,290,-218)" stroke-linecap="butt">
      <rect fill="none" x="1782.9869" width="379.2328" height="40" y="361.2948" clip-path="url(#clipPath2)"/>
      <text x="1814.6638" font-size="30px" y="391.6805" clip-path="url(#clipPath2)" font-family="sans-serif" stroke="none" xml:space="preserve">ampliconduo_filtered</text>
    </g>
    <g transform="matrix(1,0,0,1,290,-218)" fill-opacity="0.6627" fill="rgb(167,148,206)" text-rendering="geometricPrecision" shape-rendering="geometricPrecision" stroke="rgb(167,148,206)" stroke-opacity="0.6627">
      <rect x="1782.9869" width="379.2328" height="40" y="421.5994" clip-path="url(#clipPath2)" stroke="none"/>
    </g>
    <g text-rendering="geometricPrecision" stroke-miterlimit="1.45" shape-rendering="geometricPrecision" transform="matrix(1,0,0,1,290,-218)" stroke-linecap="butt">
      <rect fill="none" x="1782.9869" width="379.2328" height="40" y="421.5994" clip-path="url(#clipPath2)"/>
      <text x="1821.7024" font-size="30px" y="451.9852" clip-path="url(#clipPath2)" font-family="sans-serif" stroke="none" xml:space="preserve">AmpliconDuo.RData</text>
      <path fill="none" d="M535.0132 276.953 L407.9178 295.7347" stroke-width="3" clip-path="url(#clipPath2)"/>
      <path d="M398.0252 297.1967 L413.7777 301.1866 L409.1543 295.552 L411.9503 288.8209 Z" stroke-width="3" clip-path="url(#clipPath2)" stroke="none"/>
      <path fill="none" d="M154.974 315.1553 L114.496 315.1553" stroke-width="3" clip-path="url(#clipPath2)"/>
      <path d="M104.496 315.1553 L119.496 321.4053 L115.746 315.1553 L119.496 308.9053 Z" stroke-width="3" clip-path="url(#clipPath2)" stroke="none"/>
      <path fill="none" d="M656.5 284.9834 L656.5 321.0135" stroke-width="3" clip-path="url(#clipPath2)"/>
      <path d="M656.5 331.0135 L662.75 316.0135 L656.5 319.7635 L650.25 316.0135 Z" stroke-width="3" clip-path="url(#clipPath2)" stroke="none"/>
      <path fill="none" d="M534.9709 373.6012 L187.6557 421.0454" stroke-width="3" clip-path="url(#clipPath2)"/>
      <path d="M177.7477 422.3988 L193.4556 426.5611 L188.8942 420.8762 L191.7637 414.1761 Z" stroke-width="3" clip-path="url(#clipPath2)" stroke="none"/>
      <path fill="none" d="M581.0055 382.9954 L503.3004 409.7519" stroke-width="3" clip-path="url(#clipPath2)"/>
      <path d="M493.8453 413.0076 L510.0629 414.0335 L504.4823 409.3449 L505.9932 402.2145 Z" stroke-width="3" clip-path="url(#clipPath2)" stroke="none"/>
      <path fill="none" d="M778.0143 374.412 L1097.3431 420.1691" stroke-width="3" clip-path="url(#clipPath2)"/>
      <path d="M1107.2421 421.5876 L1093.2803 413.2731 L1096.1058 419.9918 L1091.5072 425.6467 Z" stroke-width="3" clip-path="url(#clipPath2)" stroke="none"/>
      <path fill="none" d="M695.8252 383.0054 L732.8397 407.4827" stroke-width="3" clip-path="url(#clipPath2)"/>
      <path d="M741.1808 412.9986 L732.1166 399.5115 L731.797 406.7932 L725.2216 409.9379 Z" stroke-width="3" clip-path="url(#clipPath2)" stroke="none"/>
      <path fill="none" d="M418.3594 465.02 L418.3594 502" stroke-width="3" clip-path="url(#clipPath2)"/>
      <path d="M418.3594 512 L424.6094 497 L418.3594 500.75 L412.1094 497 Z" stroke-width="3" clip-path="url(#clipPath2)" stroke="none"/>
      <path fill="none" d="M780.5 465.02 L780.5 495.9995" stroke-width="3" clip-path="url(#clipPath2)"/>
      <path d="M780.5 505.9995 L786.75 490.9995 L780.5 494.7495 L774.25 490.9995 Z" stroke-width="3" clip-path="url(#clipPath2)" stroke="none"/>
      <path fill="none" d="M780.5 558.0033 L780.5 595.4822" stroke-width="3" clip-path="url(#clipPath2)"/>
      <path d="M780.5 605.4822 L786.75 590.4822 L780.5 594.2322 L774.25 590.4822 Z" stroke-width="3" clip-path="url(#clipPath2)" stroke="none"/>
      <path fill="none" d="M56.2188 464.9918 L56.2188 595.4812" stroke-width="3" clip-path="url(#clipPath2)"/>
      <path d="M56.2188 605.4812 L62.4688 590.4812 L56.2188 594.2312 L49.9688 590.4812 Z" stroke-width="3" clip-path="url(#clipPath2)" stroke="none"/>
      <path fill="none" d="M1350.2833 439 L1459.3875 439" stroke-width="3" clip-path="url(#clipPath2)"/>
      <path d="M1469.3875 439 L1454.3875 432.75 L1458.1375 439 L1454.3875 445.25 Z" stroke-width="3" clip-path="url(#clipPath2)" stroke="none"/>
      <path fill="none" d="M1228.7594 464.981 L1228.7594 595.4692" stroke-width="3" clip-path="url(#clipPath2)"/>
      <path d="M1228.7594 605.4692 L1235.0094 590.4692 L1228.7594 594.2192 L1222.5094 590.4692 Z" stroke-width="3" clip-path="url(#clipPath2)" stroke="none"/>
      <path fill="none" d="M1712.3722 439 L1757.0424 439" stroke-width="3" clip-path="url(#clipPath2)"/>
      <path d="M1767.0424 439 L1752.0424 432.75 L1755.7924 439 L1752.0424 445.25 Z" stroke-width="3" clip-path="url(#clipPath2)" stroke="none"/>
    </g>
  </g>
</svg>
