<?xml version="1.0" encoding="UTF-8"?><svg xmlns="http://www.w3.org/2000/svg" xmlns:xlink="http://www.w3.org/1999/xlink" fill-opacity="1" color-rendering="auto" color-interpolation="auto" text-rendering="auto" stroke="black" stroke-linecap="square" width="2018" stroke-miterlimit="10" shape-rendering="auto" stroke-opacity="1" fill="black" stroke-dasharray="none" font-weight="normal" stroke-width="1" height="650" font-family="'Dialog'" font-style="normal" stroke-linejoin="miter" font-size="12px" stroke-dashoffset="0" image-rendering="auto">
  <!--Generated by ySVG 2.5-->
  <defs id="genericDefs"/>
  <g>
    <defs id="defs1">
      <clipPath clipPathUnits="userSpaceOnUse" id="clipPath1">
        <path d="M0 0 L2018 0 L2018 650 L0 650 L0 0 Z"/>
      </clipPath>
      <clipPath clipPathUnits="userSpaceOnUse" id="clipPath2">
        <path d="M-95 218 L1923 218 L1923 868 L-95 868 L-95 218 Z"/>
      </clipPath>
    </defs>
    <g fill="white" text-rendering="geometricPrecision" shape-rendering="geometricPrecision" transform="translate(95,-218)" stroke="white">
      <rect x="-95" width="2018" height="650" y="218" clip-path="url(#clipPath2)" stroke="none"/>
    </g>
    <g fill="rgb(153,204,255)" text-rendering="geometricPrecision" shape-rendering="geometricPrecision" transform="matrix(1,0,0,1,95,-218)" stroke="rgb(153,204,255)">
      <rect x="535" y="233" clip-path="url(#clipPath2)" width="243" rx="4" ry="4" height="52" stroke="none"/>
    </g>
    <g text-rendering="geometricPrecision" stroke-miterlimit="1.45" shape-rendering="geometricPrecision" transform="matrix(1,0,0,1,95,-218)" stroke-linecap="butt">
      <rect x="535" y="233" clip-path="url(#clipPath2)" fill="none" width="243" rx="4" ry="4" height="52"/>
      <text x="544.4834" font-size="30px" y="269.3857" clip-path="url(#clipPath2)" font-family="sans-serif" stroke="none" xml:space="preserve">Natter-Pipeline</text>
    </g>
    <g fill="rgb(153,204,255)" text-rendering="geometricPrecision" shape-rendering="geometricPrecision" transform="matrix(1,0,0,1,95,-218)" stroke="rgb(153,204,255)">
      <rect x="155" y="289.1553" clip-path="url(#clipPath2)" width="243" rx="4" ry="4" height="52" stroke="none"/>
    </g>
    <g text-rendering="geometricPrecision" stroke-miterlimit="1.45" shape-rendering="geometricPrecision" transform="matrix(1,0,0,1,95,-218)" stroke-linecap="butt">
      <rect x="155" y="289.1553" clip-path="url(#clipPath2)" fill="none" width="243" rx="4" ry="4" height="52"/>
      <text x="168.8706" font-size="30px" y="325.541" clip-path="url(#clipPath2)" font-family="sans-serif" stroke="none" xml:space="preserve">demultiplexed</text>
    </g>
    <g fill="rgb(255,204,153)" text-rendering="geometricPrecision" shape-rendering="geometricPrecision" transform="matrix(1,0,0,1,95,-218)" stroke="rgb(255,204,153)">
      <rect x="-79.875" width="181.875" height="40" y="295.1553" clip-path="url(#clipPath2)" stroke="none"/>
    </g>
    <g text-rendering="geometricPrecision" stroke-miterlimit="1.45" shape-rendering="geometricPrecision" transform="matrix(1,0,0,1,95,-218)" stroke-linecap="butt">
      <rect fill="none" x="-79.875" width="181.875" height="40" y="295.1553" clip-path="url(#clipPath2)"/>
      <text x="-27.7449" font-size="15px" y="320.3481" clip-path="url(#clipPath2)" font-family="sans-serif" stroke="none" xml:space="preserve">Input Files</text>
    </g>
    <g fill="rgb(153,204,255)" text-rendering="geometricPrecision" shape-rendering="geometricPrecision" transform="matrix(1,0,0,1,95,-218)" stroke="rgb(153,204,255)">
      <rect x="535" y="331" clip-path="url(#clipPath2)" width="243" rx="4" ry="4" height="52" stroke="none"/>
    </g>
    <g text-rendering="geometricPrecision" stroke-miterlimit="1.45" shape-rendering="geometricPrecision" transform="matrix(1,0,0,1,95,-218)" stroke-linecap="butt">
      <rect x="535" y="331" clip-path="url(#clipPath2)" fill="none" width="243" rx="4" ry="4" height="52"/>
      <text x="601.6636" font-size="30px" y="367.3857" clip-path="url(#clipPath2)" font-family="sans-serif" stroke="none" xml:space="preserve">Results</text>
    </g>
    <g fill="rgb(153,204,255)" text-rendering="geometricPrecision" shape-rendering="geometricPrecision" transform="matrix(1,0,0,1,95,-218)" stroke="rgb(153,204,255)">
      <rect x="-65.2812" y="413" clip-path="url(#clipPath2)" width="243" rx="4" ry="4" height="52" stroke="none"/>
    </g>
    <g text-rendering="geometricPrecision" stroke-miterlimit="1.45" shape-rendering="geometricPrecision" transform="matrix(1,0,0,1,95,-218)" stroke-linecap="butt">
      <rect x="-65.2812" y="413" clip-path="url(#clipPath2)" fill="none" width="243" rx="4" ry="4" height="52"/>
      <text x="38.4502" font-size="30px" y="449.3857" clip-path="url(#clipPath2)" font-family="sans-serif" stroke="none" xml:space="preserve">qc</text>
    </g>
    <g fill="rgb(153,204,255)" text-rendering="geometricPrecision" shape-rendering="geometricPrecision" transform="matrix(1,0,0,1,95,-218)" stroke="rgb(153,204,255)">
      <rect x="296.8594" y="413" clip-path="url(#clipPath2)" width="243" rx="4" ry="4" height="52" stroke="none"/>
    </g>
    <g text-rendering="geometricPrecision" stroke-miterlimit="1.45" shape-rendering="geometricPrecision" transform="matrix(1,0,0,1,95,-218)" stroke-linecap="butt">
      <rect x="296.8594" y="413" clip-path="url(#clipPath2)" fill="none" width="243" rx="4" ry="4" height="52"/>
      <text x="387.6782" font-size="30px" y="449.3857" clip-path="url(#clipPath2)" font-family="sans-serif" stroke="none" xml:space="preserve">logs</text>
    </g>
    <g fill="rgb(153,204,255)" text-rendering="geometricPrecision" shape-rendering="geometricPrecision" transform="matrix(1,0,0,1,95,-218)" stroke="rgb(153,204,255)">
      <rect x="1021.1406" y="413" clip-path="url(#clipPath2)" width="243" rx="4" ry="4" height="52" stroke="none"/>
    </g>
    <g text-rendering="geometricPrecision" stroke-miterlimit="1.45" shape-rendering="geometricPrecision" transform="matrix(1,0,0,1,95,-218)" stroke-linecap="butt">
      <rect x="1021.1406" y="413" clip-path="url(#clipPath2)" fill="none" width="243" rx="4" ry="4" height="52"/>
      <text x="1074.5107" font-size="30px" y="449.3857" clip-path="url(#clipPath2)" font-family="sans-serif" stroke="none" xml:space="preserve">finalData</text>
    </g>
    <g fill="rgb(153,204,255)" text-rendering="geometricPrecision" shape-rendering="geometricPrecision" transform="matrix(1,0,0,1,95,-218)" stroke="rgb(153,204,255)">
      <rect x="659" y="413" clip-path="url(#clipPath2)" width="243" rx="4" ry="4" height="52" stroke="none"/>
    </g>
    <g text-rendering="geometricPrecision" stroke-miterlimit="1.45" shape-rendering="geometricPrecision" transform="matrix(1,0,0,1,95,-218)" stroke-linecap="butt">
      <rect x="659" y="413" clip-path="url(#clipPath2)" fill="none" width="243" rx="4" ry="4" height="52"/>
      <text x="709.272" font-size="30px" y="449.3857" clip-path="url(#clipPath2)" font-family="sans-serif" stroke="none" xml:space="preserve">assembly</text>
    </g>
    <g fill="rgb(255,204,153)" text-rendering="geometricPrecision" shape-rendering="geometricPrecision" transform="matrix(1,0,0,1,95,-218)" stroke="rgb(255,204,153)">
      <rect x="327.4219" width="181.875" height="40" y="515.2305" clip-path="url(#clipPath2)" stroke="none"/>
    </g>
    <g text-rendering="geometricPrecision" stroke-miterlimit="1.45" shape-rendering="geometricPrecision" transform="matrix(1,0,0,1,95,-218)" stroke-linecap="butt">
      <rect fill="none" x="327.4219" width="181.875" height="40" y="515.2305" clip-path="url(#clipPath2)"/>
      <text x="389.502" font-size="15px" y="540.4233" clip-path="url(#clipPath2)" font-family="sans-serif" stroke="none" xml:space="preserve">Logfiles</text>
    </g>
    <g fill="rgb(153,204,255)" text-rendering="geometricPrecision" shape-rendering="geometricPrecision" transform="matrix(1,0,0,1,95,-218)" stroke="rgb(153,204,255)">
      <rect x="659" y="506" clip-path="url(#clipPath2)" width="243" rx="4" ry="4" height="52" stroke="none"/>
    </g>
    <g text-rendering="geometricPrecision" stroke-miterlimit="1.45" shape-rendering="geometricPrecision" transform="matrix(1,0,0,1,95,-218)" stroke-linecap="butt">
      <rect x="659" y="506" clip-path="url(#clipPath2)" fill="none" width="243" rx="4" ry="4" height="52"/>
      <text x="669.8384" font-size="30px" y="542.3857" clip-path="url(#clipPath2)" font-family="sans-serif" font-style="italic" stroke="none" xml:space="preserve">sample folders</text>
    </g>
    <g fill="silver" text-rendering="geometricPrecision" shape-rendering="geometricPrecision" transform="matrix(1,0,0,1,95,-218)" stroke="silver">
      <rect x="572.8813" width="415.2375" height="190.8375" y="605.4609" clip-path="url(#clipPath2)" stroke="none"/>
      <rect x="572.8813" y="605.4609" clip-path="url(#clipPath2)" fill="white" width="1" height="190.8375" stroke="none"/>
      <rect x="573.8813" y="605.4609" clip-path="url(#clipPath2)" fill="white" width="413.2375" height="1" stroke="none"/>
      <rect x="573.8813" y="795.2984" clip-path="url(#clipPath2)" fill="rgb(134,134,134)" width="414.2375" height="1" stroke="none"/>
      <rect x="987.1187" y="605.4609" clip-path="url(#clipPath2)" fill="rgb(134,134,134)" width="1" height="189.8375" stroke="none"/>
      <rect x="587.8813" y="682.2734" clip-path="url(#clipPath2)" fill="rgb(255,204,153)" width="181.875" height="40" stroke="none"/>
    </g>
    <g text-rendering="geometricPrecision" stroke-miterlimit="1.45" shape-rendering="geometricPrecision" transform="matrix(1,0,0,1,95,-218)" stroke-linecap="butt">
      <rect fill="none" x="587.8813" width="181.875" height="40" y="682.2734" clip-path="url(#clipPath2)"/>
      <text x="615.0504" font-size="15px" y="707.4663" clip-path="url(#clipPath2)" font-family="sans-serif" stroke="none" xml:space="preserve">sample_low_qual</text>
    </g>
    <g fill="rgb(255,204,153)" text-rendering="geometricPrecision" shape-rendering="geometricPrecision" transform="matrix(1,0,0,1,95,-218)" stroke="rgb(255,204,153)">
      <rect x="787.1625" width="181.875" height="40" y="624.4609" clip-path="url(#clipPath2)" stroke="none"/>
    </g>
    <g text-rendering="geometricPrecision" stroke-miterlimit="1.45" shape-rendering="geometricPrecision" transform="matrix(1,0,0,1,95,-218)" stroke-linecap="butt">
      <rect fill="none" x="787.1625" width="181.875" height="40" y="624.4609" clip-path="url(#clipPath2)"/>
      <text x="806.5314" font-size="15px" y="649.6538" clip-path="url(#clipPath2)" font-family="sans-serif" stroke="none" xml:space="preserve">sample_assembled</text>
    </g>
    <g fill="rgb(255,204,153)" text-rendering="geometricPrecision" shape-rendering="geometricPrecision" transform="matrix(1,0,0,1,95,-218)" stroke="rgb(255,204,153)">
      <rect x="787.1625" width="181.875" height="40" y="682.2734" clip-path="url(#clipPath2)" stroke="none"/>
    </g>
    <g text-rendering="geometricPrecision" stroke-miterlimit="1.45" shape-rendering="geometricPrecision" transform="matrix(1,0,0,1,95,-218)" stroke-linecap="butt">
      <rect fill="none" x="787.1625" width="181.875" height="40" y="682.2734" clip-path="url(#clipPath2)"/>
      <text x="808.6884" font-size="15px" y="707.4663" clip-path="url(#clipPath2)" font-family="sans-serif" stroke="none" xml:space="preserve">sample_singletons</text>
    </g>
    <g fill="rgb(255,204,153)" text-rendering="geometricPrecision" shape-rendering="geometricPrecision" transform="matrix(1,0,0,1,95,-218)" stroke="rgb(255,204,153)">
      <rect x="787.1625" width="181.875" height="40" y="740.0859" clip-path="url(#clipPath2)" stroke="none"/>
    </g>
    <g text-rendering="geometricPrecision" stroke-miterlimit="1.45" shape-rendering="geometricPrecision" transform="matrix(1,0,0,1,95,-218)" stroke-linecap="butt">
      <rect fill="none" x="787.1625" width="181.875" height="40" y="740.0859" clip-path="url(#clipPath2)"/>
      <text x="800.0458" font-size="15px" y="765.2788" clip-path="url(#clipPath2)" font-family="sans-serif" stroke="none" xml:space="preserve">sample_dereplicated</text>
    </g>
    <g fill="rgb(255,204,153)" text-rendering="geometricPrecision" shape-rendering="geometricPrecision" transform="matrix(1,0,0,1,95,-218)" stroke="rgb(255,204,153)">
      <rect x="587.8813" width="181.875" height="40" y="740.0859" clip-path="url(#clipPath2)" stroke="none"/>
    </g>
    <g text-rendering="geometricPrecision" stroke-miterlimit="1.45" shape-rendering="geometricPrecision" transform="matrix(1,0,0,1,95,-218)" stroke-linecap="butt">
      <rect fill="none" x="587.8813" width="181.875" height="40" y="740.0859" clip-path="url(#clipPath2)"/>
      <text x="617.2404" font-size="15px" y="765.2788" clip-path="url(#clipPath2)" font-family="sans-serif" stroke="none" xml:space="preserve">sample_chimera</text>
    </g>
    <g fill="rgb(255,204,153)" text-rendering="geometricPrecision" shape-rendering="geometricPrecision" transform="matrix(1,0,0,1,95,-218)" stroke="rgb(255,204,153)">
      <rect x="587.8813" width="181.875" height="40" y="624.4609" clip-path="url(#clipPath2)" stroke="none"/>
    </g>
    <g text-rendering="geometricPrecision" stroke-miterlimit="1.45" shape-rendering="geometricPrecision" transform="matrix(1,0,0,1,95,-218)" stroke-linecap="butt">
      <rect fill="none" x="587.8813" width="181.875" height="40" y="624.4609" clip-path="url(#clipPath2)"/>
      <text x="630.4862" font-size="15px" y="649.6538" clip-path="url(#clipPath2)" font-family="sans-serif" stroke="none" xml:space="preserve">sample.fasta</text>
    </g>
    <g fill="silver" text-rendering="geometricPrecision" shape-rendering="geometricPrecision" transform="matrix(1,0,0,1,95,-218)" stroke="silver">
      <rect x="-49.7188" width="211.875" height="130.4609" y="605.4609" clip-path="url(#clipPath2)" stroke="none"/>
      <rect x="-49.7188" y="605.4609" clip-path="url(#clipPath2)" fill="white" width="1" height="130.4609" stroke="none"/>
      <rect x="-48.7188" y="605.4609" clip-path="url(#clipPath2)" fill="white" width="209.875" height="1" stroke="none"/>
      <rect x="-48.7188" y="734.9219" clip-path="url(#clipPath2)" fill="rgb(134,134,134)" width="210.875" height="1" stroke="none"/>
      <rect x="161.1562" y="605.4609" clip-path="url(#clipPath2)" fill="rgb(134,134,134)" width="1" height="129.4609" stroke="none"/>
      <rect x="-34.7188" y="621.9219" clip-path="url(#clipPath2)" fill="rgb(255,204,153)" width="181.875" height="40" stroke="none"/>
    </g>
    <g text-rendering="geometricPrecision" stroke-miterlimit="1.45" shape-rendering="geometricPrecision" transform="matrix(1,0,0,1,95,-218)" stroke-linecap="butt">
      <rect fill="none" x="-34.7188" width="181.875" height="40" y="621.9219" clip-path="url(#clipPath2)"/>
      <text x="-0.0422" font-size="15px" y="647.1147" clip-path="url(#clipPath2)" font-family="sans-serif" stroke="none" xml:space="preserve">FastQC reports</text>
    </g>
    <g fill="rgb(255,204,153)" text-rendering="geometricPrecision" shape-rendering="geometricPrecision" transform="matrix(1,0,0,1,95,-218)" stroke="rgb(255,204,153)">
      <rect x="-34.7188" width="181.875" height="40" y="680.9219" clip-path="url(#clipPath2)" stroke="none"/>
    </g>
    <g text-rendering="geometricPrecision" stroke-miterlimit="1.45" shape-rendering="geometricPrecision" transform="matrix(1,0,0,1,95,-218)" stroke-linecap="butt">
      <rect fill="none" x="-34.7188" width="181.875" height="40" y="680.9219" clip-path="url(#clipPath2)"/>
      <text x="1.2908" font-size="15px" y="706.1147" clip-path="url(#clipPath2)" font-family="sans-serif" stroke="none" xml:space="preserve">MultiQC report</text>
    </g>
    <g fill="rgb(153,204,255)" text-rendering="geometricPrecision" shape-rendering="geometricPrecision" transform="matrix(1,0,0,1,95,-218)" stroke="rgb(153,204,255)">
      <rect x="1383.2812" y="413" clip-path="url(#clipPath2)" width="243" rx="4" ry="4" height="52" stroke="none"/>
    </g>
    <g text-rendering="geometricPrecision" stroke-miterlimit="1.45" shape-rendering="geometricPrecision" transform="matrix(1,0,0,1,95,-218)" stroke-linecap="butt">
      <rect x="1383.2812" y="413" clip-path="url(#clipPath2)" fill="none" width="243" rx="4" ry="4" height="52"/>
      <text x="1453.0942" font-size="30px" y="449.3857" clip-path="url(#clipPath2)" font-family="sans-serif" stroke="none" xml:space="preserve">figures</text>
    </g>
    <g fill="silver" text-rendering="geometricPrecision" shape-rendering="geometricPrecision" transform="matrix(1,0,0,1,95,-218)" stroke="silver">
      <rect x="1036.7031" width="411.1562" height="247.4375" y="605.4609" clip-path="url(#clipPath2)" stroke="none"/>
      <rect x="1036.7031" y="605.4609" clip-path="url(#clipPath2)" fill="white" width="1" height="247.4375" stroke="none"/>
      <rect x="1037.7031" y="605.4609" clip-path="url(#clipPath2)" fill="white" width="409.1562" height="1" stroke="none"/>
      <rect x="1037.7031" y="851.8984" clip-path="url(#clipPath2)" fill="rgb(134,134,134)" width="410.1562" height="1" stroke="none"/>
      <rect x="1446.8594" y="605.4609" clip-path="url(#clipPath2)" fill="rgb(134,134,134)" width="1" height="246.4375" stroke="none"/>
      <rect x="1051.7031" y="682.2734" clip-path="url(#clipPath2)" fill="rgb(255,204,153)" width="181.875" height="40" stroke="none"/>
    </g>
    <g text-rendering="geometricPrecision" stroke-miterlimit="1.45" shape-rendering="geometricPrecision" transform="matrix(1,0,0,1,95,-218)" stroke-linecap="butt">
      <rect fill="none" x="1051.7031" width="181.875" height="40" y="682.2734" clip-path="url(#clipPath2)"/>
      <text x="1083.5671" font-size="15px" y="707.4663" clip-path="url(#clipPath2)" font-family="sans-serif" stroke="none" xml:space="preserve">unfiltered_table</text>
    </g>
    <g fill="rgb(255,204,153)" text-rendering="geometricPrecision" shape-rendering="geometricPrecision" transform="matrix(1,0,0,1,95,-218)" stroke="rgb(255,204,153)">
      <rect x="1250.9844" width="181.875" height="40" y="624.4609" clip-path="url(#clipPath2)" stroke="none"/>
    </g>
    <g text-rendering="geometricPrecision" stroke-miterlimit="1.45" shape-rendering="geometricPrecision" transform="matrix(1,0,0,1,95,-218)" stroke-linecap="butt">
      <rect fill="none" x="1250.9844" width="181.875" height="40" y="624.4609" clip-path="url(#clipPath2)"/>
      <text x="1266.248" font-size="15px" y="649.6538" clip-path="url(#clipPath2)" font-family="sans-serif" stroke="none" xml:space="preserve">sample_nonchimera</text>
    </g>
    <g fill="rgb(255,204,153)" text-rendering="geometricPrecision" shape-rendering="geometricPrecision" transform="matrix(1,0,0,1,95,-218)" stroke="rgb(255,204,153)">
      <rect x="1250.9844" width="181.875" height="40" y="682.2734" clip-path="url(#clipPath2)" stroke="none"/>
    </g>
    <g text-rendering="geometricPrecision" stroke-miterlimit="1.45" shape-rendering="geometricPrecision" transform="matrix(1,0,0,1,95,-218)" stroke-linecap="butt">
      <rect fill="none" x="1250.9844" width="181.875" height="40" y="682.2734" clip-path="url(#clipPath2)"/>
      <text x="1292.3552" font-size="15px" y="707.4663" clip-path="url(#clipPath2)" font-family="sans-serif" stroke="none" xml:space="preserve">filtered_table</text>
    </g>
    <g fill="rgb(255,204,153)" text-rendering="geometricPrecision" shape-rendering="geometricPrecision" transform="matrix(1,0,0,1,95,-218)" stroke="rgb(255,204,153)">
      <rect x="1051.7031" width="181.875" height="40" y="740.0859" clip-path="url(#clipPath2)" stroke="none"/>
    </g>
    <g text-rendering="geometricPrecision" stroke-miterlimit="1.45" shape-rendering="geometricPrecision" transform="matrix(1,0,0,1,95,-218)" stroke-linecap="butt">
      <rect fill="none" x="1051.7031" width="181.875" height="40" y="740.0859" clip-path="url(#clipPath2)"/>
      <text x="1071.0354" font-size="15px" y="765.2788" clip-path="url(#clipPath2)" font-family="sans-serif" stroke="none" xml:space="preserve">filtered_blast_table</text>
    </g>
    <g fill="rgb(255,204,153)" text-rendering="geometricPrecision" shape-rendering="geometricPrecision" transform="matrix(1,0,0,1,95,-218)" stroke="rgb(255,204,153)">
      <rect x="1151.3438" width="181.875" height="40" y="797.8984" clip-path="url(#clipPath2)" stroke="none"/>
    </g>
    <g text-rendering="geometricPrecision" stroke-miterlimit="1.45" shape-rendering="geometricPrecision" transform="matrix(1,0,0,1,95,-218)" stroke-linecap="butt">
      <rect fill="none" x="1151.3438" width="181.875" height="40" y="797.8984" clip-path="url(#clipPath2)"/>
      <text x="1194.3955" font-size="15px" y="823.0913" clip-path="url(#clipPath2)" font-family="sans-serif" stroke="none" xml:space="preserve">filtered.fasta</text>
    </g>
    <g fill="rgb(255,204,153)" text-rendering="geometricPrecision" shape-rendering="geometricPrecision" transform="matrix(1,0,0,1,95,-218)" stroke="rgb(255,204,153)">
      <rect x="1051.7031" width="181.875" height="40" y="624.4609" clip-path="url(#clipPath2)" stroke="none"/>
    </g>
    <g text-rendering="geometricPrecision" stroke-miterlimit="1.45" shape-rendering="geometricPrecision" transform="matrix(1,0,0,1,95,-218)" stroke-linecap="butt">
      <rect fill="none" x="1051.7031" width="181.875" height="40" y="624.4609" clip-path="url(#clipPath2)"/>
      <text x="1063.9639" font-size="15px" y="649.6538" clip-path="url(#clipPath2)" font-family="sans-serif" stroke="none" xml:space="preserve">OTU_representatives</text>
    </g>
    <g fill="rgb(255,204,153)" text-rendering="geometricPrecision" shape-rendering="geometricPrecision" transform="matrix(1,0,0,1,95,-218)" stroke="rgb(255,204,153)">
      <rect x="1250.9844" width="181.875" height="40" y="740.0859" clip-path="url(#clipPath2)" stroke="none"/>
    </g>
    <g text-rendering="geometricPrecision" stroke-miterlimit="1.45" shape-rendering="geometricPrecision" transform="matrix(1,0,0,1,95,-218)" stroke-linecap="butt">
      <rect fill="none" x="1250.9844" width="181.875" height="40" y="740.0859" clip-path="url(#clipPath2)"/>
      <text x="1276.3225" font-size="15px" y="765.2788" clip-path="url(#clipPath2)" font-family="sans-serif" stroke="none" xml:space="preserve">filtered_out_table</text>
    </g>
    <g fill="silver" text-rendering="geometricPrecision" shape-rendering="geometricPrecision" transform="matrix(1,0,0,1,95,-218)" stroke="silver">
      <rect x="1496.4438" width="411.1562" height="134.3047" y="602.9688" clip-path="url(#clipPath2)" stroke="none"/>
      <rect x="1496.4438" y="602.9688" clip-path="url(#clipPath2)" fill="white" width="1" height="134.3047" stroke="none"/>
      <rect x="1497.4438" y="602.9688" clip-path="url(#clipPath2)" fill="white" width="409.1562" height="1" stroke="none"/>
      <rect x="1497.4438" y="736.2734" clip-path="url(#clipPath2)" fill="rgb(134,134,134)" width="410.1562" height="1" stroke="none"/>
      <rect x="1906.6" y="602.9688" clip-path="url(#clipPath2)" fill="rgb(134,134,134)" width="1" height="133.3047" stroke="none"/>
      <rect x="1710.725" y="621.9688" clip-path="url(#clipPath2)" fill="rgb(255,204,153)" width="181.875" height="40" stroke="none"/>
    </g>
    <g text-rendering="geometricPrecision" stroke-miterlimit="1.45" shape-rendering="geometricPrecision" transform="matrix(1,0,0,1,95,-218)" stroke-linecap="butt">
      <rect fill="none" x="1710.725" width="181.875" height="40" y="621.9688" clip-path="url(#clipPath2)"/>
      <text x="1713.1859" font-size="15px" y="647.1616" clip-path="url(#clipPath2)" font-family="sans-serif" stroke="none" xml:space="preserve">ampliconduo_unfiltered</text>
    </g>
    <g fill="rgb(255,204,153)" text-rendering="geometricPrecision" shape-rendering="geometricPrecision" transform="matrix(1,0,0,1,95,-218)" stroke="rgb(255,204,153)">
      <rect x="1511.4438" width="181.875" height="40" y="621.9688" clip-path="url(#clipPath2)" stroke="none"/>
    </g>
    <g text-rendering="geometricPrecision" stroke-miterlimit="1.45" shape-rendering="geometricPrecision" transform="matrix(1,0,0,1,95,-218)" stroke-linecap="butt">
      <rect fill="none" x="1511.4438" width="181.875" height="40" y="621.9688" clip-path="url(#clipPath2)"/>
      <text x="1523.4115" font-size="15px" y="647.1616" clip-path="url(#clipPath2)" font-family="sans-serif" stroke="none" xml:space="preserve">ampliconduo_filtered</text>
    </g>
    <g fill="rgb(255,204,153)" text-rendering="geometricPrecision" shape-rendering="geometricPrecision" transform="matrix(1,0,0,1,95,-218)" stroke="rgb(255,204,153)">
      <rect x="1611.0844" width="181.875" height="40" y="682.2734" clip-path="url(#clipPath2)" stroke="none"/>
    </g>
    <g text-rendering="geometricPrecision" stroke-miterlimit="1.45" shape-rendering="geometricPrecision" transform="matrix(1,0,0,1,95,-218)" stroke-linecap="butt">
      <rect fill="none" x="1611.0844" width="181.875" height="40" y="682.2734" clip-path="url(#clipPath2)"/>
      <text x="1626.5714" font-size="15px" y="707.4663" clip-path="url(#clipPath2)" font-family="sans-serif" stroke="none" xml:space="preserve">AmpliconDuo.RData</text>
      <path fill="none" d="M535.0132 276.953 L407.9178 295.7347" stroke-width="3" clip-path="url(#clipPath2)"/>
      <path d="M398.0252 297.1967 L413.7777 301.1866 L409.1543 295.552 L411.9503 288.8209 Z" stroke-width="3" clip-path="url(#clipPath2)" stroke="none"/>
      <path fill="none" d="M155.0247 315.1553 L112 315.1553" stroke-width="3" clip-path="url(#clipPath2)"/>
      <path d="M102 315.1553 L117 321.4053 L113.25 315.1553 L117 308.9053 Z" stroke-width="3" clip-path="url(#clipPath2)" stroke="none"/>
      <path fill="none" d="M656.5 284.9834 L656.5 321.0135" stroke-width="3" clip-path="url(#clipPath2)"/>
      <path d="M656.5 331.0135 L662.75 316.0135 L656.5 319.7635 L650.25 316.0135 Z" stroke-width="3" clip-path="url(#clipPath2)" stroke="none"/>
      <path fill="none" d="M534.9709 373.6012 L187.6557 421.0454" stroke-width="3" clip-path="url(#clipPath2)"/>
      <path d="M177.7477 422.3988 L193.4556 426.5611 L188.8942 420.8762 L191.7637 414.1761 Z" stroke-width="3" clip-path="url(#clipPath2)" stroke="none"/>
      <path fill="none" d="M581.0055 382.9954 L503.3004 409.7519" stroke-width="3" clip-path="url(#clipPath2)"/>
      <path d="M493.8453 413.0076 L510.0629 414.0335 L504.4823 409.3449 L505.9932 402.2145 Z" stroke-width="3" clip-path="url(#clipPath2)" stroke="none"/>
      <path fill="none" d="M778.0055 377.495 L1011.3091 416.8476" stroke-width="3" clip-path="url(#clipPath2)"/>
      <path d="M1021.1698 418.5108 L1007.4183 409.853 L1010.0765 416.6397 L1005.3392 422.1789 Z" stroke-width="3" clip-path="url(#clipPath2)" stroke="none"/>
      <path fill="none" d="M695.8252 383.0054 L732.8397 407.4827" stroke-width="3" clip-path="url(#clipPath2)"/>
      <path d="M741.1808 412.9986 L732.1166 399.5115 L731.797 406.7932 L725.2216 409.9379 Z" stroke-width="3" clip-path="url(#clipPath2)" stroke="none"/>
      <path fill="none" d="M418.3594 464.9841 L418.3594 505.2305" stroke-width="3" clip-path="url(#clipPath2)"/>
      <path d="M418.3594 515.2305 L424.6094 500.2305 L418.3594 503.9805 L412.1094 500.2305 Z" stroke-width="3" clip-path="url(#clipPath2)" stroke="none"/>
      <path fill="none" d="M780.5 465.02 L780.5 495.9995" stroke-width="3" clip-path="url(#clipPath2)"/>
      <path d="M780.5 505.9995 L786.75 490.9995 L780.5 494.7495 L774.25 490.9995 Z" stroke-width="3" clip-path="url(#clipPath2)" stroke="none"/>
      <path fill="none" d="M780.5 558.0164 L780.5 595.4863" stroke-width="3" clip-path="url(#clipPath2)"/>
      <path d="M780.5 605.4863 L786.75 590.4863 L780.5 594.2363 L774.25 590.4863 Z" stroke-width="3" clip-path="url(#clipPath2)" stroke="none"/>
      <path fill="none" d="M56.2188 464.9918 L56.2188 595.4812" stroke-width="3" clip-path="url(#clipPath2)"/>
      <path d="M56.2188 605.4812 L62.4688 590.4812 L56.2188 594.2312 L49.9688 590.4812 Z" stroke-width="3" clip-path="url(#clipPath2)" stroke="none"/>
      <path fill="none" d="M1264.1647 439 L1373.2687 439" stroke-width="3" clip-path="url(#clipPath2)"/>
      <path d="M1383.2687 439 L1368.2687 432.75 L1372.0187 439 L1368.2687 445.25 Z" stroke-width="3" clip-path="url(#clipPath2)" stroke="none"/>
      <path fill="none" d="M1151.5806 465.0354 L1196.5509 596.0009" stroke-width="3" clip-path="url(#clipPath2)"/>
      <path d="M1199.7985 605.4588 L1200.8384 589.2421 L1196.1449 594.8186 L1189.0159 593.3016 Z" stroke-width="3" clip-path="url(#clipPath2)" stroke="none"/>
      <path fill="none" d="M1526.9564 464.9842 L1638.2366 595.3793" stroke-width="3" clip-path="url(#clipPath2)"/>
      <path d="M1644.7281 602.9858 L1639.7449 587.5188 L1637.4252 594.4285 L1630.2367 595.6332 Z" stroke-width="3" clip-path="url(#clipPath2)" stroke="none"/>
    </g>
  </g>
</svg>
